<?xml version="1.0"?>
<svg xmlns:rdf="http://www.w3.org/1999/02/22-rdf-syntax-ns#" xmlns="http://www.w3.org/2000/svg" xmlns:cc="http://creativecommons.org/ns#" xmlns:dc="http://purl.org/dc/elements/1.1/" xmlns:svg="http://www.w3.org/2000/svg" id="svg3085" viewBox="0 0 430.41 286.49" version="1.0">
  <g id="layer1" transform="translate(-130.99 -208.02)">
    <path id="path2382" transform="translate(120.4 195.9)" d="m192.51 298.02c-0.35-0.56 0.07-1.02 0.93-1.02 1.76 0 2.02 0.6 0.63 1.46-0.51 0.31-1.21 0.12-1.56-0.44zm-76.73-1.58c-0.35-0.34-6.63-0.7-13.96-0.79-12.625-0.17-13.591-0.32-18.508-3.04-6.661-3.67-10.523-7.49-16.025-15.83-6.875-10.43-5.137-13.38 8.213-13.92 17.4-0.7 35.36 5 41.35 13.14 2.18 2.96 2.64 3.14 6.5 2.51 6.71-1.11 42.62-1.44 49.15-0.46 7.83 1.18 30.77 3.75 46.32 5.18 11.11 1.03 12.27 1.32 11.84 2.96-0.4 1.52 0.15 1.81 3.37 1.81 2.12 0 4.15 0.48 4.51 1.07 0.37 0.59 3.18 0.98 6.31 0.88 3.11-0.1 6.33 0.06 7.15 0.35 0.82 0.3 2.18 0.77 3 1.04 0.82 0.28-1.74 0.54-5.69 0.58-7.98 0.09-10.76 1.72-4.08 2.4 2.35 0.24-3.38 0.28-12.73 0.09-17.49-0.35-28.64-1.34-36.5-3.23-2.48-0.6-10.35-1.82-17.5-2.72s-16.15-2.19-20-2.87c-6.75-1.19-33.3-1.26-36.32-0.11-0.79 0.31-2.03 0.06-2.75-0.54-0.96-0.8-1.82-0.79-3.13 0.03-1.59 1-1.54 1.05 0.45 0.51 2.67-0.73 3 0.94 0.5 2.53-1.36 0.87-0.52 1 3.75 0.58 15.42-1.52 21-1.75 21-0.88 0 0.52-1.69 1.42-3.75 2-3.12 0.88-2.3 0.97 4.88 0.54 9.22-0.56 15.3 0.25 12.91 1.73-0.75 0.46-1.92 0.62-2.6 0.36s-1.49-0.06-1.81 0.44c-0.31 0.51-6.3 1.01-13.32 1.13-20.53 0.33-15.52 1.08 8.27 1.23 15.9 0.1 20 0.35 14.92 0.89-8.76 0.93-44.88 1.26-45.72 0.41zm-3.53-3.1c-0.69-0.28-1.81-0.28-2.5 0s-0.13 0.5 1.25 0.5 1.94-0.22 1.25-0.5zm7.75-0.36c0-0.6-1.12-0.75-2.75-0.36-3.93 0.94-4.06 1.38-0.42 1.38 1.75 0 3.17-0.46 3.17-1.02zm-17.37-2.39c2.82-1.31 5.36-2.77 5.65-3.24s-3.15-0.91-7.63-0.98c-7.95-0.13-9.469-0.53-26.15-6.89-2.979-1.14 8.547 9.28 11.75 10.61 1.959 0.82 3.902 0.86 6.75 0.14 2.259-0.58 4-0.63 4-0.12 0 0.49-0.873 0.89-1.941 0.89s-2.219 0.45-2.559 1c-1.147 1.86 4.934 1.01 10.13-1.41zm122.41-1.55l3.46-2.96-4.79-0.04c-4.49-0.04-28.92-2.42-36.71-3.58-19.72-2.94-56.62-4.17-58.82-1.97-0.28 0.28 0.12 0.52 0.9 0.54 13.23 0.29 23.27 1.04 31.42 2.35 5.5 0.89 12.92 2.06 16.5 2.6 3.58 0.53 12.12 1.87 19 2.97 23.85 3.82 24.67 3.82 29.04 0.09zm-115.11 0.5c2.59-1.35 4.97-4.59 3.29-4.5-1 0.06-7.82 5.96-6.88 5.96 0.42 0 2.03-0.66 3.59-1.46zm10-7.56c1.35-0.79 1.36-0.92 0.07-0.95-0.83-0.02-2.77-1.37-4.32-3.01-4.01-4.25-15.856-9.71-25.18-11.61-8.44-1.71-22.33-1.98-23.853-0.46-0.495 0.5-0.614 2.05-0.264 3.44 0.938 3.74 9.283 8.24 24.117 13.02 3.916 1.26 7.477 1.48 16.43 1.05 6.29-0.31 12.14-0.98 13-1.48zm6.07-0.89c0-0.49-0.9-0.67-2-0.38s-2 0.7-2 0.91 0.9 0.38 2 0.38 2-0.41 2-0.91zm62.5 12.91c-0.34-0.55-0.14-1 0.44-1s1.06 0.45 1.06 1-0.2 1-0.44 1-0.72-0.45-1.06-1zm122.5-6.44c0-0.86 0.45-1.56 1-1.56s1 0.42 1 0.94-0.45 1.22-1 1.56-1-0.08-1-0.94zm99-1.56c0-0.55 0.7-1 1.56-1s1.28 0.45 0.94 1-1.04 1-1.56 1-0.94-0.45-0.94-1zm-196.7-5.99c-5.3-1.22-10.3-4-10.3-5.73 0-0.89 0.72-2.42 1.61-3.4 1.48-1.64 1.48-2.16 0-6.51-0.89-2.6-1.61-5.58-1.61-6.62 0-1.5-0.46-1.74-2.25-1.18-1.24 0.38-2.53 1.13-2.87 1.66s-3.8 0.81-7.68 0.64c-3.89-0.18-7.4 0-7.8 0.4s-1.06 0.73-1.45 0.73c-0.66 0-5.95-10-5.95-11.25 0-1.11 12.94-2.75 21.72-2.75 8.99 0 9.07-0.02 9.73-2.68 0.48-1.9 0.23-2.92-0.89-3.54-0.86-0.49-1.56-1.76-1.56-2.83 0-1.77-0.73-1.95-7.8-1.95-4.29 0-8.25 0.45-8.79 0.99-0.55 0.55-7.05 1.29-14.45 1.64s-13.65 0.81-13.88 1.01 4.24 0.36 9.92 0.36c16.44 0 10.63 1.33-7.27 1.67-17.91 0.33-24.73 0.99-24.73 2.36 0 0.5 2.36 0.72 5.25 0.49 11.11-0.9 30.18-1.33 25.25-0.58-2.75 0.43-12.65 1.08-22 1.47-9.35 0.38-18.58 1.08-20.5 1.56-18.5 4.61-58.769 3.09-74.056-2.79-9.578-3.68-16.926-18.09-15.115-29.64 0.845-5.39 0.794-5.6-1.56-6.19-1.892-0.47-2.308-1.08-1.865-2.73 0.313-1.17 0.575-3.29 0.582-4.71 0.01-1.93 0.849-3 3.264-4.18 6.416-3.12 10.581-4.73 12.274-4.73 1.421 0 1.503-0.26 0.467-1.51-2.39-2.88-14.915-10.58-23.681-14.56-4.845-2.21-9.773-4.49-10.95-5.08-2.441-1.22-4.4942-5.04-3.517-6.54 1.343-2.06 5.094-3.27 8.325-2.69 11.45 2.08 19.121 6.83 31.119 19.27l8.559 8.88 4.745-0.89c2.609-0.48 4.862-1 5.006-1.14 0.143-0.15-2.237-4.76-5.289-10.25-12.614-22.7-16.614-44.66-9.095-49.93 2.069-1.45 5.967-1.24 8.287 0.44 0.55 0.4 2.226 1.02 3.723 1.37 1.972 0.48 2.592 0.31 2.248-0.61-0.261-0.69 0.436-2.75 1.549-4.57 1.639-2.68 2.448-3.18 4.252-2.63 1.225 0.38 2.79 1.13 3.478 1.68 1.942 1.56 1.474 6.54-0.832 8.84l-2.082 2.08 5.69 5.12c3.129 2.82 7.614 7.48 9.966 10.37s4.441 5.1 4.642 4.93c0.201-0.18 5.766-0.62 12.366-0.99 18.06-0.99 22.69-1.66 26.22-3.78 3.79-2.28 15.7-5.83 19.28-5.75 4.91 0.11 9.39 2.32 10.01 4.94 0.4 1.71 1.28 2.51 2.76 2.53 2.63 0.03 9.23 6.17 9.23 8.58 0 0.95 0.51 1.89 1.13 2.1s1.71 3.22 2.43 6.71c2.4 11.65-2.45 29.93-10.77 40.58-5.74 7.35-5.52 6.95-3.14 5.68 2.5-1.33 8.8-9.61 10.29-13.51 1.15-3.05 2.75-3.5 3.25-0.92 0.37 1.88-0.92 3.67-8.64 12.02-3.39 3.66-5.53 5.21-6.75 4.89-0.99-0.26-1.8 0.05-1.8 0.68 0 0.81 3.11 1.14 10.25 1.08 8.74-0.07 10.3-0.33 10.57-1.75 0.2-1.01-0.32-1.67-1.31-1.67-1.1 0-1.47-0.58-1.13-1.75 0.82-2.77 1.05-13.15 0.31-13.89-0.37-0.37-0.17-1.28 0.45-2.02 0.65-0.8 0.91-3.42 0.63-6.38-0.26-2.76-0.08-5.27 0.42-5.58 0.52-0.32 0.43-1.13-0.19-1.88-0.8-0.96-0.79-1.51 0.04-2.02 0.72-0.45 1.01-3.27 0.8-7.84-0.26-5.64-0.03-7.14 1.08-7.14 0.78 0 1.6 0.56 1.83 1.25s-0.07 1.25-0.67 1.25c-0.69 0-1.08 3.06-1.08 8.5 0 9 1.12 10.82 3.38 5.46l1.28-3.05 1.2 4.03c1.03 3.43 0.97 4.4-0.44 6.54-2.17 3.31-3.34 3.18-4.07-0.46-0.99-4.96-2.42-2.28-2.3 4.31 0.06 3.39-0.17 8.75-0.51 11.89l-0.62 5.73 8.01-0.05c4.4-0.03 8.47 0.23 9.04 0.58 1.85 1.15 1.08 2.52-1.41 2.52-1.34 0-2.74 0.48-3.1 1.06-0.6 0.98 4.4 0.61 8.29-0.61 2.02-0.63 1.52-4.45-0.58-4.45-2.8 0-3.35-1.14-1.52-3.16 1.55-1.72 1.49-1.98-1-4.29-7.3-6.76 2.05-16.32 9.57-9.78 2.7 2.33 3.04 4.87 1.2 8.76-1.28 2.69-1.42 3.87-0.56 4.73 1.71 1.71 1.38 2.74-0.86 2.74-1.45 0-2 0.67-2 2.42 0 4.32 1.02 5.59 4.36 5.43l3.14-0.15-2.92-0.43c-2.2-0.33-2.58-0.66-1.5-1.34 0.99-0.63 1.05-0.9 0.17-0.91-0.69-0.01-1.25-0.38-1.25-0.83s2.36-0.87 5.25-0.95 7.54-0.27 10.33-0.44c4.2-0.25 5.66 0.15 8.5 2.31 1.88 1.43 4.46 2.93 5.73 3.33 3.49 1.11 2.31 3.84-2.12 4.89-2.72 0.64-3.7 1.36-3.48 2.53 0.23 1.19 1.83 1.81 5.8 2.25 8.21 0.91 12.99 3.22 12.99 6.28 0 1.37-0.42 2.75-0.94 3.07-0.57 0.35-0.4 1.88 0.41 3.81 1.6 3.81 3.47 4.35 18.03 5.19 11.9 0.69 16.96-0.2 17.1-3.01 0.29-5.49 0.26-5.45 4.59-5.45 5.16 0 14.87-2.18 31.21-6.99 3.8-1.12 7.17-1.77 7.5-1.43 0.8 0.8-5.01 5.41-6.84 5.42-1.04 0-0.91-0.44 0.5-1.58 1.79-1.46 1.8-1.54 0.1-1-5.38 1.71-31.17 8.58-32.21 8.58-1.67 0-2.65 4.23-1.27 5.48 0.8 0.73 0.93 0.46 0.47-0.98-0.46-1.42 0.07-1.14 1.85 1 1.38 1.65 2.75 3.76 3.05 4.7 0.81 2.48 3.31 2.87 8.95 1.37 3.38-0.9 4.92-1.8 4.74-2.79-0.23-1.31 3.52-3.78 5.74-3.78 1.67 0 6.3-2.06 5.78-2.57-0.28-0.28-3.28 0.45-6.68 1.62-5.83 2.02-10.54 2-8.5-0.03 1.32-1.31 9.22-3.22 14.11-3.41 3.74-0.14 7.64-1.61 4.29-1.61-0.88 0-0.68-0.52 0.58-1.47 2.73-2.07 1.88-1.92-8.4 1.47-9.81 3.23-16.16 3.89-16.16 1.66 0-0.83 2.89-2.11 7.5-3.34 4.12-1.1 7.5-1.67 7.5-1.26s-2.36 1.32-5.25 2.04c-2.89 0.71-4.5 1.46-3.58 1.66 1.97 0.42 18.95-4.74 23.72-7.21 3.4-1.75 6.76-1.42 5.54 0.56-0.38 0.61-2.69 2-5.14 3.09-6.15 2.72-4.76 3.35 1.74 0.79 5.8-2.29 9.09-2.04 6.96 0.52-1 1.21-0.94 1.49 0.33 1.49 2.9 0 2.77 1.9-0.24 3.46-1.64 0.85-6.61 2.69-11.03 4.09-4.43 1.39-8.05 2.79-8.05 3.09 0 0.51 4.85 0.16 17.5-1.28 3.42-0.38 4.68-0.24 4 0.47-0.55 0.56-7.41 1.35-15.25 1.74-7.96 0.4-14.25 1.14-14.25 1.67 0 0.55 2.72 0.84 6.25 0.69 7.49-0.34 14.25-0.09 13.66 0.49-0.23 0.24-6.72 0.92-14.42 1.52-7.69 0.61-16.14 1.38-18.76 1.71-3.97 0.51-4.67 0.36-4.2-0.88 0.39-1.01-0.5-1.97-2.73-2.98-2.53-1.14-7.23-1.46-20.16-1.39l-16.87 0.1-1.76 5.5c-0.96 3.03-2.06 6.21-2.42 7.08-1 2.35 6 4.39 12.11 3.52 7.96-1.13 21.22-1.64 17.8-0.68-1.65 0.46-5.23 0.9-7.95 0.96-6.34 0.15-4.89 1.88 1.95 2.32l5 0.31-7.5 1.11c-5.61 0.83-6.49 1.14-3.5 1.24 2.2 0.07 8.46-0.54 13.91-1.37 11.69-1.76 10.84-1.71 10.17-0.62-0.65 1.05-6.46 2.03-16.54 2.79-4.2 0.31-7.99 1.12-8.55 1.82-1.68 2.08-46.55 5.05-53.19 3.53zm16.7-2.01c0-0.55-0.48-1-1.06-1s-0.78 0.45-0.44 1 0.82 1 1.06 1 0.44-0.45 0.44-1zm11-8.04c5.1-1.71 7.5-4.89 8.99-11.91 1.16-5.48 1.12-6.86-0.38-11.6-0.93-2.96-2.03-5.59-2.45-5.85s-4.12 0.09-8.21 0.79c-6.19 1.04-7.11 1.43-5.45 2.3 1.1 0.57 2.55 0.84 3.23 0.6 0.91-0.33 0.86 0.27-0.17 2.25-0.82 1.58-1.19 4.2-0.89 6.33 0.84 6.1 0.85 6.1 4.87 4.99 4.35-1.2 5.02-0.77 3.42 2.21-1.03 1.92-0.97 2.15 0.42 1.61 1.02-0.39 1.62-0.09 1.62 0.79 0 2.02-2.08 3.03-3.04 1.47-0.64-1.04-1.11-1.06-2.29-0.08-0.89 0.74-2.55 0.96-4.18 0.55-1.82-0.46-3-0.23-3.6 0.7-0.75 1.17-1.03 1.17-1.77 0.03-0.64-0.99-2.01-1.17-5.12-0.64-3.31 0.56-4.08 0.44-3.47-0.55 0.6-0.96-0.06-1.13-2.77-0.69-3.77 0.62-6.08-1-8.7-6.07-1.16-2.25-1.1-2.29 2.42-1.63 3.49 0.66 3.6 0.59 2.98-1.86-0.49-1.95-0.15-2.8 1.47-3.66 2.91-1.56 4.38-0.35 3.7 3.04-0.64 3.21 1.54 6.18 3.87 5.28 1.6-0.61 0.7-2.89-4.16-10.61-1.3-2.06-1.9-3.75-1.32-3.75 0.57 0 1.33 0.79 1.67 1.75 1.39 3.85 6.68 6.81 9.95 5.56 1.23-0.47 1.2-0.83-0.19-2.37-0.9-0.99-2.27-1.56-3.04-1.27-0.78 0.3-1.41 0.09-1.41-0.46s0.68-1.26 1.5-1.57c0.82-0.32 1.5-1.15 1.49-1.86 0-0.94-2.73-1.34-10.38-1.5l-10.38-0.21-2.22 6.89c-3.58 11.15-0.74 20.32 6.69 21.57 2.09 0.35 4.25 0.82 4.8 1.04 1.91 0.78 19.02-0.44 22.5-1.61zm-31-7.96c0-0.55 0.42-1 0.94-1s1.22 0.45 1.56 1-0.08 1-0.94 1-1.56-0.45-1.56-1zm-2.5-2c-0.34-0.55-0.14-1 0.44-1s1.06 0.45 1.06 1-0.2 1-0.44 1-0.72-0.45-1.06-1zm57.23 10.31c-0.97-0.26-2.32-0.24-3 0.03-0.68 0.28 0.12 0.49 1.77 0.47 1.65-0.03 2.2-0.25 1.23-0.5zm-30.73-10.37c0-0.58-0.45-0.78-1-0.44s-1 0.82-1 1.06 0.45 0.44 1 0.44 1-0.48 1-1.06zm-13.5-0.94c-0.34-0.55-0.82-1-1.06-1s-0.44 0.45-0.44 1 0.48 1 1.06 1 0.78-0.45 0.44-1zm11.5-3.12c0-0.49-1.24-0.84-2.75-0.8s-2.19 0.3-1.5 0.58 1.25 1.2 1.25 2.05c0 1.25 0.28 1.3 1.5 0.29 0.82-0.68 1.5-1.64 1.5-2.12zm-41-1.88c8.76-1.82 9.6-1.84 10.72-0.34 1.08 1.45 1.33 1.33 2.25-1.08 1.86-4.89 1.83-4.91-11.39-4.33-6.83 0.29-12.91 0.84-13.51 1.21-0.76 0.47-0.56 1.59 0.63 3.61 0.95 1.61 1.75 2.92 1.77 2.92 0.01-0.01 4.31-0.9 9.53-1.99zm8.19 0.32c-0.72-0.29-1.59-0.26-1.92 0.08-0.33 0.33 0.26 0.56 1.31 0.52 1.17-0.05 1.41-0.28 0.61-0.6zm93.2-4.85c-0.91-1.39-1.86-2.34-2.09-2.1-0.6 0.59 1.99 4.63 2.96 4.63 0.43 0 0.04-1.14-0.87-2.53zm-3.79 0.26c2.02-2.02-1.56-2.68-9.15-1.7-7.18 0.94-20.2 0.58-24.7-0.68-1.11-0.31-1.75 0.07-1.75 1.02 0 1.01 1.25 1.64 3.75 1.9 6.49 0.68 31.05 0.27 31.85-0.54zm-56.03-3.5c-1.72-1.65-1.75-1.63-0.61 0.61 0.66 1.28 1.48 2.06 1.81 1.72 0.34-0.33-0.2-1.38-1.2-2.33zm-130.38-0.67c15.46-0.82 29-3.36 33.28-6.24 1.09-0.72 2.67-1.32 3.52-1.32 2.05 0 10.7-5.89 14.77-10.06 2.03-2.08 3.05-3.96 2.72-5.02-0.3-0.92 0.05-1.91 0.77-2.19 1.31-0.5 3.08-6.47 4.29-14.49l0.64-4.25-3.83 0.49c-2.1 0.27-5.85 1.16-8.34 1.98-5.92 1.96-16.14 4.22-23.01 5.09-3.02 0.38-6.62 1.13-8 1.66-2.84 1.09-20.23 2.15-33.25 2.03-4.812-0.05-8.75 0.3-8.75 0.77 0 0.46 1.079 1.67 2.398 2.67 3.642 2.77 7.723 5.74 8.947 6.52 0.604 0.38 0.772 1.02 0.375 1.41-1.464 1.47-8.394-3.71-13.04-9.75-1.118-1.45-1.622-1.71-1.308-0.68 0.281 0.92 0.833 3.4 1.226 5.5 0.659 3.52 0.582 3.71-0.987 2.41-0.936-0.78-1.446-2.08-1.134-2.89 0.915-2.39-2.071-5.87-5.659-6.6-1.825-0.37-6.918-0.9-11.318-1.17s-10.16-0.93-12.799-1.46c-2.64-0.53-5.067-0.97-5.393-0.97-0.327 0-0.338 3.49-0.026 7.75 0.658 8.98 3.828 16.48 8.696 20.58 3.751 3.15 13.643 6.41 24.522 8.07 7.818 1.19 10.837 1.21 30.69 0.16zm-14.19-6.56c0-0.55 0.45-1 1-1s1 0.45 1 1-0.45 1-1 1-1-0.45-1-1zm14-3c0-0.55 0.45-1 1-1s1 0.45 1 1-0.45 1-1 1-1-0.45-1-1zm-4.5-1c0.34-0.55 1.266-1 2.059-1 0.791 0 1.441 0.45 1.441 1s-0.93 1-2.059 1c-1.132 0-1.781-0.45-1.441-1zm-32.5-1c0-0.55 0.45-1 1-1s1 0.45 1 1-0.45 1-1 1-1-0.45-1-1zm11 0.11c0-0.61 0.723-1.11 1.607-1.11 1.018 0 1.396-0.55 1.031-1.5-0.35-0.91-0.001-1.5 0.893-1.5 0.808 0 1.469 0.9 1.469 2s-0.413 2-0.918 2-1.63 0.27-2.5 0.61c-0.87 0.33-1.582 0.11-1.582-0.5zm-21-0.55c0-1.06 1.919-1.5 2.49-0.58 0.345 0.56-0.074 1.02-0.931 1.02s-1.559-0.2-1.559-0.44zm16-0.56c0-0.55 0.45-1 1-1s1 0.45 1 1-0.45 1-1 1-1-0.45-1-1zm47.39-0.58c0.34-0.87 0.61-1.77 0.61-2s0.45-0.42 1-0.42 1 0.9 1 2c0 1.17-0.67 2-1.61 2-1.05 0-1.4-0.54-1-1.58zm22.32-0.39c0.92-1.08 1.88-1.77 2.13-1.52 0.6 0.59-1.85 3.49-2.95 3.49-0.48 0-0.11-0.89 0.82-1.97zm-49.759-1.47c0.657-0.79 1.835-1.2 2.616-0.9 1.957 0.76 0.771 2.34-1.748 2.34-1.683 0-1.843-0.27-0.868-1.44zm-41.451-0.56c-0.34-0.55-0.141-1 0.441-1s1.059 0.45 1.059 1-0.198 1-0.441 1-0.719-0.45-1.059-1zm56.5 0.12c0-0.55 0.45-1.28 1-1.62s1-0.17 1 0.38-0.45 1.28-1 1.62-1 0.17-1-0.38zm-9-2.12c0-0.55 0.423-1 0.941-1s1.219 0.45 1.559 1-0.084 1-0.941 1-1.559-0.45-1.559-1zm31 0c0-0.55 0.45-1 1-1s1 0.45 1 1-0.45 1-1 1-1-0.45-1-1zm6-1c0-0.55 0.45-1 1-1s1 0.45 1 1-0.45 1-1 1-1-0.45-1-1zm-66-0.94c0-0.58 0.45-1.06 1-1.06s1 0.2 1 0.44-0.45 0.72-1 1.06-1 0.14-1-0.44zm26-1c0-0.52 0.45-1.22 1-1.56s1 0.08 1 0.94-0.45 1.56-1 1.56-1-0.42-1-0.94zm-51-1.06c0-0.55 0.198-1 0.441-1s0.719 0.45 1.059 1 0.141 1-0.441 1-1.059-0.45-1.059-1zm72 0c0-0.55 0.2-1 0.44-1s0.72 0.45 1.06 1 0.14 1-0.44 1-1.06-0.45-1.06-1zm-60-1c0-0.55 0.675-1 1.5-1s1.5 0.45 1.5 1-0.675 1-1.5 1-1.5-0.45-1.5-1zm7.469-0.05c-0.95-1.54 0.351-2.53 1.635-1.25 0.718 0.72 0.735 1.28 0.052 1.7-0.56 0.35-1.319 0.15-1.687-0.45zm40.051-2.92c-0.81-1.31 1.49-2.42 2.63-1.28 0.64 0.64 0.45 1.19-0.55 1.57-0.85 0.33-1.78 0.19-2.08-0.29zm22.98-0.03c0.34-0.55 1.04-1 1.56-1s0.94 0.45 0.94 1-0.7 1-1.56 1-1.28-0.45-0.94-1zm-34.5-1c0-0.55 0.675-1 1.5-1s1.5 0.45 1.5 1-0.675 1-1.5 1-1.5-0.45-1.5-1zm19.46-1.07c-0.36-0.58-0.42-1.3-0.13-1.6 0.72-0.71 2.67 0.55 2.67 1.73 0 1.28-1.73 1.19-2.54-0.13zm30.04 0.06c-0.35-0.55 0.1-1.28 0.98-1.62 1.91-0.74 2.98 0.07 2.06 1.56-0.83 1.35-2.23 1.37-3.04 0.06zm-17.5-0.99c0-0.55 0.68-1 1.5-1s1.5 0.45 1.5 1-0.68 1-1.5 1-1.5-0.45-1.5-1zm7-1c0-0.55 0.42-1 0.94-1s1.22 0.45 1.56 1-0.08 1-0.94 1-1.56-0.45-1.56-1zm23.5 0c-0.34-0.55 0.08-1 0.94-1s1.56 0.45 1.56 1-0.42 1-0.94 1-1.22-0.45-1.56-1zm-5.5-1c0-0.55 0.45-1 1-1s1 0.45 1 1-0.45 1-1 1-1-0.45-1-1zm183 27.44c0-0.24-0.45-0.44-1-0.44s-1 0.48-1 1.06 0.45 0.78 1 0.44 1-0.82 1-1.06zm4.5-1.44c0.78-1.27-0.54-1.27-2.5 0-1.29 0.84-1.27 0.97 0.19 0.98 0.93 0.01 1.97-0.43 2.31-0.98zm-164.26-4.64l7.55-0.64 0.63-4.11c0.35-2.26 0.9-5.57 1.22-7.36 0.57-3.17 0.5-3.25-3.03-3.25-2.54 0-3.61 0.44-3.61 1.5 0 1.42-4.56 2.03-12.72 1.69-1.55-0.06-3.21 1.27-5.42 4.36-1.76 2.45-3.52 4.45-3.91 4.45-0.4 0-0.95 0.9-1.24 2-0.48 1.85-0.03 2 6.23 2 3.72 0 10.15-0.29 14.3-0.64zm-14.74-1.41c2.75-0.42 6.8-0.75 9-0.73 3.88 0.05 3.85 0.07-1 0.83-2.75 0.42-6.8 0.75-9 0.73-3.88-0.05-3.85-0.07 1-0.83zm14.5-6.89c0-0.58 0.45-1.06 1-1.06s1 0.2 1 0.44-0.45 0.72-1 1.06-1 0.14-1-0.44zm42.08 5.34c1.16-1.39 1.02-1.55-1.05-1.25-1.31 0.19-2.56 0.91-2.79 1.6-0.59 1.8 2.27 1.54 3.84-0.35zm26.42 0.6c1.68-0.72 1.47-0.87-1.25-0.93-1.79-0.04-3.25 0.38-3.25 0.93 0 1.19 1.74 1.19 4.5 0zm-50.05-5.31c0.68-1.97 0.64-3.02-0.15-3.5-0.77-0.48-0.85-2.09-0.25-5.19 1.13-5.9 1.12-6.81-0.07-5-0.8 1.23-1.14 1.26-1.84 0.17-0.69-1.07-0.99-1.01-1.49 0.31-0.35 0.91-1.05 1.39-1.55 1.08-0.51-0.31-1.21 1.35-1.55 3.69-0.35 2.34-0.89 5.97-1.19 8.07l-0.56 3.81 3.83-0.31c3.17-0.27 4-0.81 4.82-3.13zm17.95 2.48c0.46-0.75 12.04-3.23 17.1-3.66 3.03-0.26 2.42-2.96-0.75-3.33-1.57-0.18-2.75-0.93-2.75-1.75 0-1.83-3.4-1.86-4.91-0.04-0.63 0.76-3.14 1.89-5.56 2.5-7.6 1.91-13.53 1.25-13.53-1.5 0-0.76-0.9-1.39-2-1.39-1.2 0-2-0.67-2-1.67 0-3.55-1.23-0.2-1.64 4.46l-0.43 4.93 6.22-0.07c4.02-0.05 6.35 0.35 6.61 1.14 0.46 1.38 2.86 1.63 3.64 0.38zm35.6-0.17c-1.94-1.25-3-1.25-3 0 0 0.55 1.01 0.99 2.25 0.98 1.82-0.01 1.96-0.2 0.75-0.98zm-17.2-1.47c0.29-0.29-0.67-0.53-2.13-0.53-1.47 0-2.67 0.42-2.67 0.94 0 0.94 3.78 0.61 4.8-0.41zm10.2 0.3c0-0.45-0.68-0.83-1.5-0.83s-1.5 0.38-1.5 0.83c0 0.46 0.68 0.84 1.5 0.84s1.5-0.38 1.5-0.84zm-70.76-7.54c-1.25-0.24-3.05-0.23-4 0.02-0.96 0.25 0.06 0.45 2.26 0.44s2.98-0.22 1.74-0.46zm6.49 0.02c-0.97-0.26-2.32-0.24-3 0.03-0.68 0.28 0.12 0.49 1.77 0.47 1.65-0.03 2.2-0.25 1.23-0.5zm-2.29-2.21c0.32-0.52-1.26-0.68-3.69-0.37-5.63 0.72-6.05 1.27-0.98 1.27 2.26 0 4.36-0.41 4.67-0.9zm29.56-1.1c1.29-0.84 1.27-0.97-0.19-0.98-0.93-0.01-1.97 0.43-2.31 0.98-0.78 1.27 0.54 1.27 2.5 0zm24 0c0-0.55-0.68-1-1.5-1s-1.5 0.45-1.5 1 0.68 1 1.5 1 1.5-0.45 1.5-1zm-118.66-8.05c3.22-0.44 6.14-1.1 6.5-1.46 1.01-1.01-3.04-3.56-4.79-3.01-2.43 0.77-28.275 0.71-30.901-0.07-1.937-0.57-2.287-0.37-1.991 1.17 0.637 3.31 4.692 4.45 15.342 4.31 5.5-0.08 12.63-0.5 15.84-0.94zm-35.34-0.78c0-0.45-1.012-1.75-2.25-2.88-1.636-1.49-4.16-2.21-9.25-2.63-10.686-0.89-16.563-1.73-19.324-2.78-2.704-1.03-4.423 0.31-3.495 2.73 0.618 1.61 12.103 4.22 23.328 5.3 4.67 0.45 9.053 0.88 9.741 0.95 0.688 0.08 1.25-0.23 1.25-0.69zm3.968 0.08c-0.064-1.51-2.873-4.45-3.92-4.1-0.693 0.23-0.516 1.16 0.493 2.61 1.52 2.17 3.492 3.03 3.427 1.49zm41.622-3.99c-1.09-1.1-1.84 0.64-1.06 2.45 0.74 1.71 0.8 1.71 1.21-0.04 0.24-1 0.17-2.09-0.15-2.41zm4.39-0.68c-1.35-1.35-2.35 0.01-1.55 2.1 0.57 1.5 0.81 1.54 1.58 0.3 0.55-0.88 0.53-1.84-0.03-2.4zm13.02 1.4c3.58-0.63 8.75-1.76 11.5-2.51 11.5-3.13 13.09-3.61 15-4.47 1.1-0.49 2.87-1.03 3.93-1.2 1.77-0.28 4.18-5.52 3.06-6.65-0.25-0.24-3.05 0.71-6.22 2.11-5.82 2.57-24.03 7.92-32.16 9.44-3.28 0.61-4.61 1.41-5.26 3.17-0.77 2.1-0.63 2.29 1.39 1.81 1.24-0.3 5.18-1.06 8.76-1.7zm-57.5-2.98c0.34-0.55-0.084-1-0.941-1s-1.559 0.45-1.559 1 0.423 1 0.941 1 1.219-0.45 1.559-1zm-10.099-6.02c-4.097-5.22-8.494-8.22-9.929-6.78-0.844 0.84 11.051 12.6 12.844 12.7 1.4 0.08 0.732-1.28-2.915-5.92zm15.599 4.46c0-0.24-0.702-0.44-1.559-0.44s-1.276 0.46-0.931 1.02c0.571 0.92 2.49 0.48 2.49-0.58zm37.5-0.44c0.34-0.55-0.31-1-1.44-1s-2.06 0.45-2.06 1 0.65 1 1.44 1 1.72-0.45 2.06-1zm-43.5-1c0-0.55-0.675-1-1.5-1s-1.5 0.45-1.5 1 0.675 1 1.5 1 1.5-0.45 1.5-1zm46.35-1.53c-0.85-2.21-2.24-1.77-1.64 0.52 0.28 1.09 0.9 1.75 1.36 1.47 0.46-0.29 0.59-1.18 0.28-1.99zm-65.85 0.53c-0.34-0.55-1.266-1-2.059-1s-1.441 0.45-1.441 1 0.927 1 2.059 1 1.781-0.45 1.441-1zm23 0c-0.34-0.55-0.816-1-1.059-1s-0.441 0.45-0.441 1 0.477 1 1.059 1 0.781-0.45 0.441-1zm58.5-1.13c4.12-0.68 6.74-1.41 5.81-1.62-0.93-0.2-4.27 0.1-7.43 0.69-3.16 0.58-7.27 1.06-9.12 1.06-2.12 0-3.13 0.39-2.72 1.06 0.36 0.58 1.85 0.83 3.31 0.55 1.46-0.27 6.03-1.06 10.15-1.74zm-68.5-0.87c-0.364-1.15-0.18-2 0.433-2 0.587 0 1.067 0.68 1.067 1.5s0.73 1.5 1.622 1.5c1.244 0 1.363-0.31 0.509-1.34-0.612-0.74-0.797-1.66-0.411-2.05 0.387-0.38 1.444 0.28 2.349 1.48 0.909 1.21 1.917 1.74 2.253 1.2 0.766-1.24-3.36-5.79-4.202-4.64-0.897 1.23-5.12 1.51-5.12 0.34 0-0.55-0.41-0.99-0.912-0.99-1.215 0-0.817 1.99 0.951 4.75 1.783 2.78 2.292 2.87 1.461 0.25zm50.5-1.56c0-0.24-0.7-0.44-1.56-0.44s-1.28 0.46-0.93 1.02c0.57 0.92 2.49 0.48 2.49-0.58zm21.1-0.47c14.99-2.27 17.06-2.78 11.73-2.89-2.02-0.04-4.45-0.38-5.41-0.75-1.19-0.46-1.52-0.3-1.03 0.5 0.46 0.74 0.02 1.17-1.19 1.17-1.06 0-4.08 0.3-6.72 0.66-3.33 0.45-4.59 0.32-4.12-0.43 0.36-0.59-0.13-1.24-1.1-1.43-0.97-0.2 4.68-1.18 12.54-2.19 7.87-1.01 14.58-1.56 14.92-1.22 0.34 0.33-0.47 0.64-1.8 0.68s-3.32 0.45-4.42 0.91c-1.21 0.5 0.36 0.62 4 0.3 3.3-0.29 6.45-0.98 7-1.52 0.66-0.65 0.15-0.75-1.5-0.31-1.85 0.5-2.12 0.42-1.03-0.33 2.77-1.9 0.02-2.46-12.53-2.54-6.9-0.04-11.52-0.37-10.25-0.73 1.52-0.43 0.51-0.68-2.94-0.75-5.03-0.1-7.16 1.25-3.5 2.21 0.96 0.25 0.32 0.51-1.42 0.57-4.18 0.16-6.33 1.04-6.33 2.61 0 0.7-1.01 1.58-2.25 1.95-2.18 0.66-2.19 0.7-0.25 1.48 2 0.81 2 0.81 0 1.4-1.1 0.33 0.7 0.4 4 0.16 6.57-0.47 6.35 0.07-0.56 1.43-8.78 1.72 0.77 1.09 14.16-0.94zm-3.85-6.66c0.96-0.25 2.54-0.25 3.5 0s0.17 0.46-1.75 0.46-2.71-0.21-1.75-0.46zm8.48-0.97c0.68-0.27 2.03-0.29 3-0.03 0.97 0.25 0.42 0.47-1.23 0.49-1.65 0.03-2.45-0.18-1.77-0.46zm6.02-1c0.69-0.28 1.81-0.28 2.5 0s0.13 0.5-1.25 0.5-1.94-0.22-1.25-0.5zm-38.05 5.51c1.26-1.45 1.05-2.54-1.69-9-3.99-9.4-20.267-33.77-27.123-40.61-6.286-6.28-18.113-13.04-24.319-13.89-4.241-0.58-4.5-0.47-5.153 2.13-2.826 11.26 6.215 39.46 16.055 50.08 1.391 1.5 2.53 3.09 2.53 3.53 0 0.72 9.173 3.75 23 7.59 3.025 0.84 6.62 1.9 8 2.37 4.2 1.41 6.48 1.57 6.88 0.49 0.21-0.57 1.03-1.78 1.82-2.69zm-58.822 2.25c0.758-0.48 1.069-1.38 0.691-1.99-0.846-1.37-3.56-1.41-5.569-0.09-1.333 0.87-1.333 1.09 0 1.96 1.85 1.22 3.093 1.25 4.878 0.12zm63.372-1.61c-0.37-1.46-2.51-1.2-3.03 0.36-0.29 0.87 0.2 1.22 1.41 0.98 1.03-0.2 1.76-0.8 1.62-1.34zm86.75 0.51c0-0.55-0.42-1-0.94-1s-1.22 0.45-1.56 1 0.08 1 0.94 1 1.56-0.45 1.56-1zm-66.81-0.68c-0.72-0.29-1.59-0.26-1.92 0.08-0.33 0.33 0.26 0.56 1.31 0.52 1.17-0.05 1.41-0.28 0.61-0.6zm6-1c-0.72-0.29-1.59-0.26-1.92 0.08-0.33 0.33 0.26 0.56 1.31 0.52 1.17-0.05 1.41-0.28 0.61-0.6zm-77.94-0.98c-0.688-0.28-1.812-0.28-2.5 0s-0.125 0.5 1.25 0.5 1.938-0.22 1.25-0.5zm64.03-6.54c24.17-18.87 32.72-27.98 32.72-34.85 0-2.35-0.6-3.23-2.75-4.06-6.62-2.56-20.25 1.88-41.75 13.58-6.6 3.59-12.59 6.31-13.3 6.04-1.43-0.54-1.2-0.04 2.64 5.49 2.21 3.2 2.37 3.27 1.8 0.86-0.57-2.42-0.03-3 6.52-6.96 17.2-10.39 25.33-14.43 31.98-15.91 12.07-2.69 14.31 1.48 5.7 10.59-2.84 3-11.84 11.14-20 18.09s-14.84 13.02-14.84 13.48c0 1.91 2.51 0.5 11.28-6.35zm-72.28 4.22c0-3.86-24.359-24.02-29.025-24.02-1.021 0-2.135-0.45-2.475-1-1.048-1.7-10.473-1.23-11.157 0.55-0.636 1.65 2.173 4.36 4.581 4.42 3.769 0.08 22.664 11.25 30.861 18.23 3.224 2.75 7.215 3.75 7.215 1.82zm59.66-0.46c-0.36-0.94 0.21-1.54 1.64-1.75 1.2-0.17 2.34-1.14 2.53-2.14 0.28-1.49-0.2-1.78-2.49-1.54-1.56 0.16-3.4-0.05-4.09-0.48-1.56-0.96-1.57-0.17-0.05 4.03 0.66 1.83 1.61 3.32 2.11 3.32s0.66-0.65 0.35-1.44zm72.34-1.56c0-0.55-0.45-1-1-1s-1 0.45-1 1 0.45 1 1 1 1-0.45 1-1zm-33.08-36.63c0.88-0.79-8.53-0.18-10.42 0.68-1.32 0.61 0.04 0.71 4 0.31 3.3-0.34 6.19-0.78 6.42-0.99zm-78.301-24.92c-0.8-2.09-2.677-1.79-1.94 0.3 0.502 1.43 0.368 1.52-0.732 0.5-1.877-1.74-2.631-1.57-3.237 0.75-0.804 3.08 2.322 4.34 4.621 1.87 1.014-1.08 1.593-2.63 1.288-3.42zm-20.066 153.64c-0.322-0.53-0.159-1.22 0.362-1.54s1.21-0.16 1.532 0.36c0.322 0.53 0.159 1.22-0.362 1.54s-1.21 0.16-1.532-0.36zm279.45-0.09c0-0.55 0.7-1 1.56-1s1.28 0.45 0.94 1-1.04 1-1.56 1-0.94-0.45-0.94-1zm30.02-3.36c-4.93-0.87-6.73-1.65-7.53-3.27l-1.06-2.13-4.46 2.33c-5.14 2.69-7.39 3.09-4.47 0.8 3.28-2.58 27.6-14.37 29.63-14.37 1.03 0 1.87-0.43 1.87-0.95s1.15-2.18 2.55-3.7c1.92-2.08 2.47-3.61 2.25-6.3l-0.3-3.55-10 0.28c-5.5 0.15-12.66 0.54-15.9 0.86-5.06 0.51-5.82 0.37-5.31-0.95 0.9-2.36-14.67-15.07-20.58-16.79-7.68-2.24-26.3-1.9-34.44 0.63-2.16 0.67-2.19 0.61-0.76-2.26 0.81-1.62 1.76-4.39 2.12-6.16 0.6-2.99 0.47-3.18-1.74-2.72-1.32 0.27-7.45 1.03-13.64 1.68-6.19 0.66-11.25 1.64-11.25 2.18s1.01 0.71 2.25 0.37c3.11-0.86 20.37-2.03 19.75-1.34-0.28 0.3-3.65 0.81-7.5 1.14-10.31 0.86-14.41 1.62-15.15 2.82-0.46 0.74 0.94 0.89 4.47 0.47 3.15-0.38 5.37-0.21 5.77 0.44 0.36 0.58 1.95 0.79 3.53 0.48 1.58-0.32 2.88-0.21 2.88 0.25s-3.69 1.14-8.2 1.52c-4.5 0.37-8.73 1.13-9.4 1.68-0.81 0.67-1.32 0.67-1.55-0.02-0.24-0.7-3.33-0.67-9.65 0.07-5.11 0.61-9.58 0.82-9.93 0.47-1.44-1.43 1.74-2.49 10.69-3.56 5.21-0.62 9.71-1.4 10-1.72 0.3-0.32-4.41-0.26-10.45 0.13-6.55 0.43-11.3 1.19-11.74 1.88-0.84 1.33-0.91 1.08-1.02-4.08-0.06-2.56 0.37-3.77 1.33-3.84 3.5-0.25 3.92-0.54 3.99-2.66 0.07-2.15 0.11-2.16 0.93-0.25 0.72 1.67 0.87 1.45 0.93-1.31 0.04-1.97-0.34-3.06-0.93-2.69-0.57 0.36-1-0.56-1-2.14 0-4.44 2.14-1.27 2.74 4.05 0.48 4.22 0.74 4.59 3.29 4.59 2.51 0 2.8-0.39 3.23-4.25 0.26-2.34 0.32-8.07 0.14-12.75-0.23-5.6-0.03-7.82 0.56-6.5 0.49 1.1 0.94 6.73 0.99 12.5 0.05 6.31 0.43 9.96 0.94 9.14 0.73-1.15 0.94-1.15 1.35 0 0.27 0.75 0.89 0.98 1.37 0.52 0.99-0.93 0.99-16.94-0.02-41.09-0.36-8.84-0.3-15.54 0.13-14.9 0.8 1.17 1.78 26.65 1.78 46.04v10.2l2.5-0.54c1.38-0.29 3.04-0.7 3.71-0.91 0.79-0.24 1.33-3.4 1.54-9.16l0.34-8.8 0.2 9.08 0.21 9.07 3-0.44c2.85-0.42 4.03-2.46 2.11-3.64-1.13-0.7-1.94-8.57-0.89-8.57 0.43 0 0.78 1.35 0.78 3s0.45 3 1 3 1 1.35 1 3c0 2 0.5 3 1.5 3 1.05 0 1.5-1.06 1.5-3.56 0-2.12 0.4-3.31 1-2.94 0.55 0.34 1 1.99 1 3.67v3.06l4.75-0.71c2.61-0.39 5.09-0.92 5.5-1.18 0.97-0.59 0.89-8.67-0.14-14-1.02-5.27-0.17-5.74 13.39-7.34 10.55-1.24 18.54-2.3 32.5-4.29l8.5-1.21 0.68-4.5c1.45-9.69-5.31-40.08-10.34-46.48-1.56-1.97-2.37-2.25-4.61-1.58-1.5 0.46-4.75 1.39-7.23 2.08-9.21 2.55-17.08 5.3-17.59 6.13-0.29 0.47-1.82 0.85-3.41 0.85s-3.16 0.45-3.5 1-1.8 1-3.24 1c-1.45 0-5.25 0.68-8.44 1.5-3.2 0.82-8.63 2.2-12.07 3.06-3.44 0.85-8.27 2.17-10.75 2.92s-7.09 2.09-10.25 2.99c-5.11 1.45-5.77 1.93-5.89 4.33-0.12 2.36-0.19 2.42-0.57 0.45-0.23-1.24-0.91-2.25-1.49-2.25-0.73 0-0.9 4.64-0.52 14.75 0.47 12.98 0.43 13.61-0.37 5.25-1.78-18.59-2.05-20.26-3.07-19.24-0.54 0.54-0.98 3.62-0.98 6.85 0 3.22-0.48 6.43-1.05 7.12-0.77 0.92-0.67 1.27 0.34 1.27 1.05 0 1.3 1.08 0.99 4.25-0.32 3.21-0.59 3.76-1.14 2.25-0.78-2.15-1.52 4.31-2.54 22-0.71 12.57-2.47 24.5-3.6 24.5-1.04 0-1.04 0.12 0.2-13 2.52-26.75 3.89-43.83 3.81-47.5l-0.09-4-0.85 4.5c-0.47 2.48-1.6 12.6-2.5 22.5-2.26 24.68-2.5 26.5-3.53 26.5-1.18 0-1.15-4.21 0.05-7.38 1.01-2.65 1.39-5.82 3.04-25.12 0.56-6.6 1.45-14.92 1.97-18.5 0.51-3.58 1.22-10.99 1.56-16.48 0.34-5.5 0.81-10.18 1.05-10.42s0.44 0.2 0.45 0.98c0.01 1.17 0.18 1.16 0.98-0.08 0.53-0.82 0.94-3.07 0.91-5-0.04-2.96-0.2-3.19-1-1.5-0.63 1.34-0.78-1.32-0.43-8 0.28-5.5 0.51-13.26 0.51-17.25 0.01-4.31 0.43-7.25 1.04-7.25 0.57 0 0.93 1.56 0.8 3.46-0.13 1.91 0.08 3.79 0.47 4.17 0.38 0.39 0.7-1.51 0.71-4.21 0-2.71 0.3-7.353 0.66-10.327 0.47-3.974 0.34-5.217-0.51-4.691-0.64 0.394-1.16 1.89-1.16 3.324s-0.25 2.359-0.55 2.055c-0.91-0.904 0.75-15.778 1.69-15.197 0.47 0.294 0.86-0.07 0.86-0.809 0-4.548-16.52-8.27-36.5-8.223-13.78 0.032-15.57 0.251-21.96 2.695-7.66 2.923-9.45 2.729-5.41-0.587 1.92-1.582 2.81-3.498 3.33-7.16 2.63-18.897 10.53-37.79 18.61-44.557 11.25-9.424 21.55-10.311 32.17-2.77 2.93 2.087 8.54 11.117 10.45 16.827 0.64 1.925 1.66 8.675 2.27 15 0.6 6.325 1.27 13.3 1.49 15.5s-0.03 7.15-0.55 11-1.12 8.35-1.34 10-0.69 7.275-1.05 12.5c-0.36 5.22-0.8 11.08-0.98 13-1.59 17.3-1.68 20.79-0.57 21.47 0.64 0.4 1.71-0.01 2.38-0.91 1.72-2.36 25.06-5.64 40.16-5.64 6.6-0.01 16.72 0.68 22.5 1.53 5.78 0.84 14.32 2.04 19 2.67s8.96 1.51 9.53 1.96c2.2 1.71 5.89 14.84 8.56 30.42 1.65 9.66 2.57 8.37 2.66-3.72 0.04-6.2 0.26-18 0.49-26.21l0.41-14.93 3.87-3.35c7.66-6.61 21.99-8.01 32.48-3.15 10.69 4.94 12.03 6.91 13.58 19.86 0.22 1.92 0.65 5.41 0.94 7.75 0.3 2.34 0.13 4.25-0.36 4.25-0.5 0-1.22-3.6-1.6-8s-0.87-8-1.07-8c-0.21 0-1.86 0.87-3.68 1.92-7.48 4.35-26.58 5.34-33.79 1.74-1.83-0.91-3.79-1.66-4.34-1.66-0.56 0-1.91-0.79-2.99-1.75-1.94-1.72-1.96-1.67-1.45 3.02 0.28 2.62 0.15 4.99-0.3 5.27-0.81 0.5-0.31 25.58 0.57 28.46 0.25 0.82 0.69 4.2 0.97 7.5 1.19 13.65 0.63 12.93 13.29 17.18 4.25 1.43 11.1 4.13 15.21 6.01 8.79 4 8.79 4 12.11-6.68 3.35-10.79 3.54-28.24 0.38-36.26-0.37-0.96-0.26-1.75 0.25-1.75 1.63 0 3.28 9.81 3.28 19.46 0 8.76-0.97 13.53-5.66 27.79-0.93 2.83 1.22 2 2.61-1 3.4-7.37 4.29-12.26 4.54-25.04 0.14-7.31 0.54-13.57 0.88-13.92 1.02-1.01 0.72-2.46-0.37-1.79-0.55 0.34-1 0.14-1-0.44s0.45-1.06 1-1.06 1-0.68 1-1.5 0.45-1.5 1-1.5c1.52 0 1.22 16.57-0.51 28.04-0.82 5.52-2.58 12.69-3.91 15.95l-2.4 5.91 3.41 1.13c1.88 0.62 3.41 1.54 3.41 2.05 0 1.32-1.68 1.14-4.92-0.54-2.78-1.44-2.91-1.38-7.33 3.5-2.47 2.73-4.31 4.96-4.07 4.96s2.49-0.94 5-2.08c2.52-1.15 6.1-2.33 7.95-2.63 1.85-0.31 3.37-1 3.37-1.55 0-1.35 6.18-0.04 7.21 1.53 0.44 0.67 0.75 6.03 0.69 11.9-0.07 5.87 0.21 11.2 0.62 11.86 0.53 0.86 3.1 0.99 9.36 0.48 4.74-0.39 8.32-0.41 7.96-0.04-0.75 0.78-3.05 1.28-7.34 1.6-2.44 0.19-2.17 0.36 1.5 0.93 3.86 0.6 3.33 0.72-3.75 0.85-5.41 0.1-8.25 0.54-8.25 1.29 0 0.81 2.49 0.95 8.75 0.47 6.02-0.46 8.28-0.35 7.25 0.35-0.82 0.55-4.51 1.02-8.19 1.02-3.91 0.01-6.98 0.49-7.4 1.16-0.51 0.84 2.21 0.95 10.45 0.41 7.78-0.5 11.14-0.39 11.14 0.37 0 0.66-2.6 1.1-6.75 1.13-7.44 0.06-12.02 0.46-23.25 2.05-4.12 0.59-10.65 0.92-14.5 0.73l-7-0.33-0.31 3.69c-0.22 2.68 0.26 4.26 1.75 5.75 1.13 1.13 2.06 3.13 2.06 4.44 0 1.97 0.74 2.57 4.25 3.47 2.34 0.59 5.99 1.97 8.12 3.07 3.16 1.62 5.04 1.87 10.3 1.38 5.2-0.48 6.37-0.33 6.13 0.8-0.23 1.09 1.69 1.51 8.7 1.9l9 0.5-7.79 1.25c-4.29 0.69-9.87 1.25-12.42 1.25-2.54 0-4.3 0.32-3.91 0.71s4.69 0.58 9.56 0.42c4.86-0.16 9.1 0.13 9.42 0.64 0.33 0.53-6.38 1.2-16.15 1.6-9.19 0.38-18.73 1.11-21.21 1.62-6.07 1.25-23.01 1.06-30.98-0.35zm33.71-2.73c4.98-0.99 7.17-2.35 5.88-3.63-0.33-0.33-5.59-0.78-11.71-1-12.67-0.47-15.9-1.33-15.9-4.26 0-1.11-0.6-2.02-1.34-2.02-2.52 0-13.66 6.15-13.66 7.54 0 4.68 20.69 6.58 36.73 3.37zm-1.13-6.41c-1.04-0.79-2.36-1.15-2.93-0.8-0.6 0.37-0.22 0.97 0.9 1.4 3.12 1.23 4.07 0.95 2.03-0.6zm-7.54-2c-0.62-1.4-7.95-3.75-9.66-3.1-2.1 0.81-1.69 2.54 0.85 3.59 2.88 1.19 9.39 0.83 8.81-0.49zm-3.3-6.75c-0.64-1.92-4.76-2.2-4.76-0.32 0 1.02 0.9 1.57 2.58 1.57 1.62 0 2.43-0.47 2.18-1.25zm-29.61-22.67c0.48-1.97 1.07-6.06 1.32-9.08l0.45-5.5-6.21-5.32c-8.96-7.67-12.34-10.18-13.69-10.18-0.66 0-1.95-0.84-2.86-1.86-3.15-3.52-17.24-7.14-27.82-7.14-4.85 0-5.36 0.22-5.94 2.55-0.36 1.41-0.18 4.9 0.38 7.75 0.58 2.92 0.65 5.44 0.16 5.74-0.48 0.29-1.17 3.08-1.54 6.19l-0.66 5.65 3.88-0.19c2.13-0.11 4.12-0.5 4.4-0.88 0.29-0.39 2.32-0.31 4.5 0.17 2.19 0.47 6.68 1 9.98 1.18s7.12 0.88 8.5 1.57c3.14 1.58 5.27 1.6 6.78 0.09 0.65-0.65 1.52-0.85 1.92-0.45 0.41 0.41 0.08 1.18-0.73 1.72-1.23 0.82-1.09 1.25 0.88 2.69 1.29 0.95 4.88 4.06 7.99 6.92 6.18 5.71 6.56 5.63 8.31-1.62zm-23.15-13.52c0-1.41 0.45-2.56 1-2.56s1 0.87 1 1.94-0.45 2.22-1 2.56c-0.57 0.35-1-0.49-1-1.94zm-14.33-0.23c-1.07-1.06-0.77-3.33 0.44-3.33 0.61 0 0.86 0.65 0.55 1.44-0.3 0.78-0.01 1.65 0.65 1.92 0.72 0.29 0.77 0.51 0.11 0.56-0.6 0.04-1.39-0.22-1.75-0.59zm-12.67-5.33c0-0.55 0.45-1 1-1s1 0.45 1 1-0.45 1-1 1-1-0.45-1-1zm20 0c0-0.55 0.2-1 0.44-1s0.72 0.45 1.06 1 0.14 1-0.44 1-1.06-0.45-1.06-1zm-10-2.44c0-0.24 0.45-0.72 1-1.06s1-0.14 1 0.44-0.45 1.06-1 1.06-1-0.2-1-0.44zm-9-4.56c0-0.55 0.45-1 1-1s1 0.45 1 1-0.45 1-1 1-1-0.45-1-1zm-3-2.94c0-0.58 0.45-1.06 1-1.06s1 0.2 1 0.44-0.45 0.72-1 1.06-1 0.14-1-0.44zm19-2.5c0-0.24 0.45-0.72 1-1.06s1-0.14 1 0.44-0.45 1.06-1 1.06-1-0.2-1-0.44zm-9-1.56c-1.21-0.78-1.05-0.97 0.81-0.98 1.29-0.01 2.03 0.42 1.69 0.98-0.74 1.2-0.64 1.2-2.5 0zm67.09 30.26c-0.8-1.37-1.04-0.64-1.06 3.32-0.02 2.8 0.31 5.43 0.72 5.85 1.18 1.19 1.48-7.2 0.34-9.17zm6.28 6.49c0.33-1.24 0.61-6.19 0.62-11 0-5.16 0.42-8.75 1.01-8.75 0.55 0 1-0.9 1-2s-0.44-2-0.97-2-0.71 0.68-0.39 1.5c0.31 0.82 0.11 1.5-0.45 1.5s-1.19-0.51-1.4-1.13c-0.63-1.89-4.95 0.03-4.41 1.96 0.25 0.92 1.02 6.28 1.7 11.92 1.23 10.16 2.13 12.34 3.29 8zm-6.77-12.48c-0.33-0.33-0.56 0.26-0.52 1.31 0.05 1.17 0.28 1.41 0.6 0.61 0.29-0.72 0.26-1.59-0.08-1.92zm-129.58-4.23c-1.15-2.15-4.02-1.74-4.02 0.57 0 0.82 1.03 1.39 2.54 1.39 2.2 0 2.4-0.25 1.48-1.96zm14.48 0.22l4-0.73-6-0.57c-3.74-0.36-6.28-0.18-6.73 0.48-0.49 0.7-0.74 0.64-0.75-0.19-0.01-0.69-0.47-1.25-1.02-1.25s-1 0.68-1 1.5c0 1.68 4.67 1.99 11.5 0.76zm100.67-3.05c0.18-0.44 3.25-1.45 6.83-2.27 5.81-1.31 6.53-1.75 6.8-4.08 0.26-2.16-0.45-3.05-4.09-5.18-5.15-3.02-8.86-7.59-12.35-15.19-1.38-3.02-2.59-5.49-2.69-5.49s-1.76 0.47-3.68 1.04-6.64 1.26-10.49 1.54-8.58 0.93-10.5 1.46c-1.92 0.52-5.52 0.96-8 0.97-6.1 0.02-12 1.06-12 2.12 0 0.48 1.08 0.87 2.39 0.87 3.56 0 15.84 3.96 17.87 5.76 0.96 0.86 2.59 2.05 3.6 2.65 5.44 3.2 10.48 7.01 15.27 11.53 3.69 3.48 6.2 5.06 8.03 5.06 1.47 0 2.82-0.36 3.01-0.79zm-89.17-1.21c0-0.55-0.45-1-1-1s-1 0.45-1 1 0.45 1 1 1 1-0.45 1-1zm119.61-2.58c-0.34-0.87-0.61-1.77-0.61-2s-0.41-0.42-0.91-0.42c-0.49 0-0.67 0.9-0.38 2s0.97 2 1.51 2c0.55 0 0.72-0.71 0.39-1.58zm13.39-0.36c0-0.52-0.45-1.22-1-1.56s-1 0.08-1 0.94 0.45 1.56 1 1.56 1-0.42 1-0.94zm-24-2.18c0-0.48-0.9-0.88-2-0.88s-2 0.63-2 1.41c0 0.91 0.7 1.22 2 0.88 1.1-0.29 2-0.92 2-1.41zm30 0.12c0-0.55-0.48-1-1.06-1s-0.78 0.45-0.44 1 0.82 1 1.06 1 0.44-0.45 0.44-1zm-28-3.94c0-1.36-1.76-2.25-2.4-1.22-0.6 0.97 0.26 2.16 1.57 2.16 0.45 0 0.83-0.42 0.83-0.94zm9.23-5.56c1.71-2.31 0.56-2.78-1.23-0.5-1.08 1.38-1.97 2.03-1.98 1.45s0.52-1.59 1.18-2.25c0.76-0.76 0.85-1.54 0.25-2.12-2.11-2.06-30.33-12.53-31.26-11.61-0.22 0.22 0.62 2.44 1.87 4.93 2.57 5.15 8.25 11.41 12.31 13.55 2.47 1.3 3.1 1.25 6.32-0.48l3.59-1.94 1.51 2.27 1.5 2.27 2.6-2.28c1.42-1.26 2.93-2.74 3.34-3.29zm-37.46-18.98c0.15-0.12-0.23-2.59-0.85-5.47-1.33-6.2-2.53-5.58-3.5 1.81-0.7 5.32-0.69 5.36 1.69 4.63 1.31-0.41 2.51-0.84 2.66-0.97zm-107.27-49.52c-0.34-0.55-0.82-1-1.06-1s-0.44 0.45-0.44 1 0.48 1 1.06 1 0.78-0.45 0.44-1zm143.34-6.56c7.47-2.24 10.23-6.38 6.41-9.61-3.29-2.79-9.29-5.78-14.79-7.38-9.8-2.85-24.02 1.12-27.54 7.7-0.97 1.8 0.64 5.85 2.32 5.85 0.42 0 1.1 0.09 1.51 0.19 0.41 0.11 1.03-1.13 1.38-2.75 0.6-2.79 0.64-2.74 0.75 0.83 0.1 3.14 0.58 3.96 2.87 4.86 7.33 2.89 18.12 3.01 27.09 0.31zm-27.67-5.44c-0.02-1.38 0.36-3.4 0.83-4.5 0.86-2 0.86-2 0.83 0-0.02 1.1-0.39 3.12-0.83 4.5l-0.8 2.5-0.03-2.5zm-117.17-6c0-0.55-0.45-1-1-1s-1 0.45-1 1 0.45 1 1 1 1-0.45 1-1zm0.6-33.729c-0.33-0.332-0.56 0.258-0.52 1.312 0.05 1.165 0.28 1.402 0.6 0.605 0.29-0.722 0.26-1.585-0.08-1.917zm1.45-37.689c-0.58-4.355-1.28-8.142-1.55-8.417-1.25-1.244-1.48 0.942-0.54 4.953 1.13 4.774 2.66 30.695 1.77 29.882-0.3-0.275-0.85-5.225-1.23-11-1.52-23.68-6.95-37.662-16.87-43.477-8.02-4.698-15.67-2.614-25.12 6.836-6.37 6.376-10.58 15.093-13.35 27.641-3.41 15.471-3.6 17.107-1.95 16.472 0.83-0.319 2.2-3.823 3.23-8.262 2.15-9.242 5.14-18.325 7.74-23.505 4.4-8.762 14.69-16.905 21.35-16.905 5.61 0 12.47 5.595 16.08 13.116 2.49 5.178 5.33 17.686 5.92 26.084 0.79 11.251 1.38 14 3.02 14 0.8 0 1.55 0.562 1.66 1.25 0.83 4.847 0.67-22.405-0.16-28.668zm-6.07 20.168c-0.02-6.268-2.53-21.665-4.44-27.296-3.34-9.837-11.96-17.372-17.5-15.291-8.75 3.292-20.71 23.011-22.46 37.061l-0.69 5.531 9.16-0.522c9.51-0.542 23.72 1.042 29.95 3.336 5.57 2.053 6 1.85 5.98-2.819zm-42.98-18.25c1.34-4.328 6.39-13.923 8.81-16.75 0.83-0.962 1.03-1.75 0.46-1.75-2.48 0-9.39 12.848-11.83 22-1.09 4.091 1.16 1.01 2.56-3.5zm45.12-16.175c-1.18-2.027-1.46-1.378-0.5 1.136 0.35 0.894 0.84 1.415 1.1 1.157 0.25-0.257-0.01-1.289-0.6-2.293zm61.38 241.68c-0.34-0.55 0.08-1 0.94-1s1.56 0.45 1.56 1-0.42 1-0.94 1-1.22-0.45-1.56-1zm-128.81-1.64c-0.35-0.35-0.39-1.03-0.09-1.52 0.64-1.03 2.4-0.14 2.4 1.22 0 1.07-1.36 1.25-2.31 0.3zm-61.69-3.36c0-0.55 0.45-1 1-1s1 0.45 1 1-0.45 1-1 1-1-0.45-1-1zm203.55-0.91c-0.32-0.53-0.16-1.22 0.36-1.54 0.53-0.32 1.22-0.16 1.54 0.36 0.32 0.53 0.16 1.22-0.36 1.54-0.53 0.32-1.22 0.16-1.54-0.36zm-169.55-1.09c0-0.55 0.68-1 1.5-1s1.5 0.45 1.5 1-0.68 1-1.5 1-1.5-0.45-1.5-1zm-14-3.94c0-0.58 0.45-1.06 1-1.06s1 0.2 1 0.44-0.45 0.72-1 1.06-1 0.14-1-0.44zm144.5-0.06c-0.34-0.55-0.14-1 0.44-1s1.06 0.45 1.06 1-0.2 1-0.44 1-0.72-0.45-1.06-1zm-211.5-2.58c0-1.77 2.153-1.46 2.771 0.39 0.218 0.66-0.317 1.19-1.188 1.19s-1.583-0.71-1.583-1.58zm91.12-1.3c0.21-0.61 0.72-1.12 1.13-1.12 1.17 0 0.88 1.46-0.37 1.88-0.62 0.2-0.96-0.14-0.76-0.76zm186.88-0.62c0-0.92 0.56-1.48 1.25-1.25 1.42 0.47 1.26 2.08-0.25 2.58-0.55 0.19-1-0.41-1-1.33zm-94-0.5c0-0.55 0.45-1 1-1s1 0.45 1 1-0.45 1-1 1-1-0.45-1-1zm-101-0.88c0-0.55 0.45-1.28 1-1.62s1-0.17 1 0.38-0.45 1.28-1 1.62-1 0.17-1-0.38zm253-0.12c0-0.55 0.45-1 1-1s1 0.45 1 1-0.45 1-1 1-1-0.45-1-1zm-300.53-1.05c-0.95-1.54 0.35-2.53 1.63-1.25 0.72 0.72 0.74 1.28 0.06 1.7-0.56 0.35-1.32 0.15-1.69-0.45zm316.13 0.21c-0.35-0.56-0.15-1.32 0.45-1.69 1.54-0.95 2.53 0.35 1.25 1.63-0.72 0.72-1.28 0.74-1.7 0.06zm-342.6-1.16c0-0.55 0.45-1 1-1s1 0.45 1 1-0.45 1-1 1-1-0.45-1-1zm324 0c0-0.55 0.45-1 1-1s1 0.45 1 1-0.45 1-1 1-1-0.45-1-1zm-110.72-3.25c-3.09-4-2.69-4.95 0.53-1.25 1.2 1.38 1.78 2.5 1.31 2.5-0.48 0-1.31-0.56-1.84-1.25zm-236.01-0.35c0.332-0.34 1.195-0.37 1.917-0.08 0.797 0.32 0.56 0.55-0.605 0.6-1.054 0.04-1.644-0.19-1.312-0.52zm286.73-4.4c0-0.55 0.45-1 1-1s1 0.45 1 1-0.45 1-1 1-1-0.45-1-1zm-90-11.44c0-0.24 0.45-0.72 1-1.06s1-0.14 1 0.44-0.45 1.06-1 1.06-1-0.2-1-0.44zm163.24-6.25c0.95-0.25 2.75-0.26 4-0.02 1.24 0.24 0.46 0.45-1.74 0.46s-3.22-0.19-2.26-0.44zm-172.31-13.5c-0.3-6.1 0.37-19.4 1.07-21.14 0.58-1.43 0.89 1.8 0.94 9.52 0.03 6.79-0.36 11.95-0.94 12.31-0.55 0.34-1.03 0.03-1.07-0.69zm10.09-3.39c0-2.71 0.44-5.6 0.96-6.42 0.64-1.01 0.81 0.42 0.53 4.38-0.53 7.31-1.52 8.65-1.49 2.04zm11.98 2.58c0-0.55 0.45-1 1-1s1 0.45 1 1-0.45 1-1 1-1-0.45-1-1zm-6-3.61c0-1.5 0.31-2.41 0.7-2.03 1.09 1.09 1.21 3.57 0.21 4.2-0.5 0.3-0.91-0.67-0.91-2.17zm-31.08-2.11c-0.82-2.16-0.72-2.96 0.52-3.86 0.86-0.63 1.56-1.65 1.56-2.28 0-1.42 2.66-1.51 3.51-0.12 0.71 1.15-2.58 8.91-3.78 8.95-0.43 0.02-1.24-1.19-1.81-2.69zm-49.03 0.97c-0.06-0.41-0.03-1.72 0.06-2.9 0.09-1.19-0.26-2.42-0.77-2.74-0.97-0.6 1.68-7.61 2.87-7.61 0.81 0 2.95 4.68 2.95 6.44 0 0.74-0.67 1.61-1.5 1.92-0.82 0.32-1.5 1.72-1.5 3.11 0 2.22-1.82 3.75-2.11 1.78zm2.6-8.27c-0.56-0.91-0.93-0.88-1.55 0.12-1.05 1.7-0.02 3.38 1.29 2.07 0.55-0.55 0.66-1.53 0.26-2.19zm27.53 6.84c-0.01-0.92-0.74-2.4-1.62-3.28-1.48-1.47-1.4-1.82 0.98-4.19l2.58-2.58 1.02 2.68c1.33 3.5 1.31 3.62-0.98 6.55-1.51 1.94-1.96 2.12-1.98 0.82zm11.98 0.4c0-0.64-0.68-0.9-1.5-0.58-2.23 0.85-1.96-4.91 0.33-6.99 1.97-1.78 3.65-2.23 2.72-0.73-0.31 0.5-0.16 1.98 0.34 3.28 0.63 1.66 0.48 2.94-0.5 4.28-0.76 1.04-1.39 1.38-1.39 0.74zm-34.29-6.22c0.29-1.1 0.88-2 1.31-2 0.44 0 0.56 0.9 0.27 2s-0.88 2-1.31 2c-0.44 0-0.56-0.9-0.27-2zm60.56 1.4c0.33-0.34 1.2-0.37 1.92-0.08 0.8 0.32 0.56 0.55-0.61 0.6-1.05 0.04-1.64-0.19-1.31-0.52zm6.26-2.15c-0.37-0.96-0.81-4.67-0.98-8.25s-0.1-4.93 0.15-3.01 0.79 3.94 1.2 4.5c0.81 1.08 1.45 8.51 0.74 8.51-0.24 0-0.73-0.79-1.11-1.75zm-4.28-3.75c-0.01-2.2 0.19-3.22 0.44-2.26 0.25 0.95 0.26 2.75 0.02 4-0.24 1.24-0.45 0.46-0.46-1.74zm16.82 3.5c-0.15-0.28-0.42-2.98-0.61-6-0.24-4.02-0.06-5.02 0.66-3.74 0.55 0.97 0.82 3.67 0.61 6s-0.51 4.02-0.66 3.74zm-59.3-10.11c-0.43-2.95 1.77-8.87 3.31-8.88 0.32-0.01 1.06 1.53 1.64 3.41 0.95 3.12 0.8 3.67-1.71 6.07l-2.76 2.65-0.48-3.25zm11.23 1.17c0-1.07-0.42-2.2-0.94-2.52-0.99-0.61 1.88-6.52 3.16-6.53 0.4-0.01 1.42 1.32 2.26 2.95 1.44 2.78 1.41 3.03-0.47 4.04-1.11 0.59-2.01 1.73-2.01 2.54 0 0.8-0.45 1.46-1 1.46s-1-0.87-1-1.94zm9.45-2.47c0.09-2.42 0.75-5.12 1.47-6 1.36-1.64 3.2-2.17 2.92-0.84-0.09 0.41 0.38 2.07 1.04 3.68 1.11 2.69 0.98 3.11-1.59 5.21-1.53 1.26-3.06 2.3-3.39 2.32s-0.53-1.94-0.45-4.37zm21.74 0.91c-0.02-1.65 0.19-2.45 0.47-1.77 0.27 0.68 0.29 2.03 0.03 3-0.25 0.97-0.47 0.42-0.49-1.23h-0.01zm-62.59-1.96c-0.4-1.58 0.07-3.59 1.28-5.58 2.06-3.39 2.52-3.16 3.58 1.79 0.56 2.59 0.38 3.25-0.88 3.25-0.87 0-1.58 0.68-1.58 1.5 0 2.41-1.73 1.72-2.4-0.96zm11.11-0.01c-1.27-0.93-1.55-2.06-1.09-4.39 0.78-3.87 1.89-3.98 3.76-0.37 1.12 2.17 1.17 3.12 0.24 4.39-0.98 1.34-1.49 1.41-2.91 0.37zm46.29-1.47c0-1.62 0.36-3.16 0.79-3.43 0.44-0.27 0.61 1.05 0.39 2.94-0.49 4.2-1.18 4.49-1.18 0.49zm12.08 1.52c-0.04-1.05 0.19-1.64 0.52-1.31 0.34 0.33 0.37 1.2 0.08 1.92-0.32 0.8-0.55 0.56-0.6-0.61zm9.08-1.58c0-1.38 0.22-1.94 0.5-1.25s0.28 1.81 0 2.5-0.5 0.13-0.5-1.25zm-13.41-3.33c-1.2-2.93-0.95-11.27 0.31-10.01 0.58 0.58 0.92 3.48 0.75 6.45-0.21 3.58-0.56 4.78-1.06 3.56zm4.6-7.67c0-4.68 0.17-6.59 0.38-4.25s0.21 6.16 0 8.5-0.38 0.43-0.38-4.25zm8.59 7.75c-0.66-2.86-0.86-11.75-0.26-11.74 0.45 0 0.95 2.7 1.11 6 0.16 3.29 0.04 5.99-0.25 5.99-0.3 0-0.57-0.11-0.6-0.25zm4.25-2.25c-0.02-1.65 0.19-2.45 0.47-1.77 0.27 0.68 0.29 2.03 0.03 3-0.25 0.97-0.47 0.42-0.49-1.23h-0.01zm-87.17-6.95c-1.29-3.38-1.28-3.89 0.14-7 1.46-3.22 2.04-3.19 3.59 0.16 1.65 3.55 1.6 4.03-0.73 6.99l-1.98 2.52-1.02-2.67zm2.18-4.75c-0.93-0.93-1.2-0.67-1.2 1.2s0.27 2.13 1.2 1.2 0.93-1.47 0-2.4zm7.87 4.88c-1.38-3.63-1.36-3.75 0.99-6.57 2.19-2.63 2.13-2.64 3.93 0.81 1.05 2.01 1.01 2.61-0.19 3.5-0.79 0.59-1.94 1.98-2.55 3.08-1.06 1.91-1.16 1.87-2.18-0.82zm2.93-4.24c0-0.86-0.45-1.28-1-0.94s-1 1.04-1 1.56 0.45 0.94 1 0.94 1-0.7 1-1.56zm8 3.76c0-0.99-0.42-2.23-0.93-2.75-0.57-0.59-0.03-2.05 1.41-3.84l2.32-2.89 1.6 3.09c1.53 2.96 1.5 3.2-0.77 5.64-2.79 3.02-3.63 3.19-3.63 0.75zm11-0.64c0-1.34-0.48-2.74-1.07-3.1-0.69-0.43-0.47-1.32 0.66-2.56 2.25-2.49 2.85-2.4 4.86 0.67 1.63 2.49 1.6 2.65-0.93 5-3.26 3.02-3.52 3.02-3.52-0.01zm11 0.64c0-0.99-0.47-2.27-1.04-2.84-0.73-0.73-0.57-1.44 0.5-2.32 0.85-0.71 1.54-1.9 1.54-2.66 0-2.48 1.46-1.39 3.25 2.4 1.71 3.66 1.71 3.74-0.5 5.45-2.88 2.21-3.75 2.2-3.75-0.03zm8.54-0.09c-0.63-1.97 1.22-7.11 2.56-7.11 1.56 0 1.79 1.75 0.69 5.34-1.24 4.04-2.34 4.65-3.25 1.77zm17.75-6.61c0-2.75 0.2-3.76 0.43-2.24s0.22 3.77-0.02 5c-0.23 1.23-0.42-0.01-0.41-2.76zm-74.1-5c-0.02-1.65 0.19-2.45 0.47-1.77 0.27 0.68 0.29 2.03 0.03 3-0.25 0.97-0.47 0.42-0.49-1.23h-0.01zm11.81-1.18c0-1.18-0.52-2.33-1.15-2.54-0.79-0.26-0.6-1.24 0.61-3.08 2.18-3.32 2.85-3.36 4.49-0.29 1.16 2.16 1.02 2.71-1.33 5.24-2.48 2.67-2.62 2.71-2.62 0.67zm27.25-1.02c-1.09-2.36-0.98-2.96 0.94-5l2.18-2.32 1.32 3.12c1.68 4.02 1.65 4.9-0.19 4.9-0.82 0-1.5 0.45-1.5 1 0 1.9-1.51 0.97-2.75-1.7zm9.3-0.9c-1.11-5.89 3.02-8.83 5.32-3.79 1.29 2.83 0.48 4.6-2.93 6.42-1.44 0.78-1.83 0.35-2.39-2.63zm-46.67 0.64c-0.9-0.98-2.25-2.04-3-2.34-1.16-0.46-1.16-0.7-0.02-1.5 0.96-0.67 1.03-1.15 0.23-1.64-0.62-0.39-0.86-1.12-0.55-1.63 1.16-1.87 2.34-0.85 2.69 2.32l0.36 3.25 1.29-3 1.28-3 1.44 2.73c1.18 2.23 1.21 3.1 0.18 4.75-1.5 2.4-1.78 2.4-3.9 0.06zm19.29-0.15c-1.15-1.84-1.03-2.41 0.96-4.53l2.28-2.43 1.38 2.64c1.24 2.36 1.17 2.82-0.66 4.53-2.52 2.34-2.37 2.35-3.96-0.21zm9.44-0.32c-0.46-1.82-0.06-3.12 1.39-4.57l2.04-2.04 1.06 2.77c1.16 3.04 0.19 5.57-2.34 6.07-0.92 0.18-1.77-0.69-2.15-2.23zm27.02 0.64c-0.6-0.97 2.32-7.21 3.38-7.21 0.62 0 0.67 3.38 0.1 7.25-0.15 1-2.86 0.96-3.48-0.04zm-74.66-14.95c-3.98-4.26-7.7-8.77-8.27-10.02-0.8-1.75-1.51-2.1-3.12-1.52-7.93 2.84-17.58-3.46-17.58-11.49 0-2.79 1.47-5.88 4.27-8.95l2.02-2.22-2.39-6.28c-2.12-5.553-2.39-7.844-2.33-19.78 0.09-15.565 0.72-20.978 3.38-28.834 1.04-3.106 1.74-5.809 1.54-6.006-0.19-0.198-1.91 0.155-3.82 0.783-1.9 0.629-5.42 1.367-7.82 1.641-2.39 0.274-5.03 0.685-5.85 0.913s-4.65-0.195-8.5-0.941c-3.85-0.745-7.14-1.223-7.31-1.063s0.44 2.027 1.36 4.149c2.49 5.754 3.42 9.998 4.13 18.858 1.55 19.255-0.3 38.13-4.5 46-2.8 5.24-12.008 18.85-15.565 23-5.349 6.24-4.995 3.73 0.496-3.5 7.719-10.17 13.759-20.88 15.989-28.36 2.18-7.31 2.97-27.286 1.52-38.64-1.3-10.175-4.84-20.079-8.43-23.588-2.97-2.894-3.18-3.458-2.01-5.324 2.11-3.391 10.1-5.45 21.32-5.501 11.19-0.051 18.35 1.56 21.41 4.818 2.04 2.167 2.04 2.227 0.18 7.14-3.05 8.062-6.09 24.741-6.09 33.45 0 8.647 2.31 21.095 4.57 24.685 0.76 1.19 2.39 2.32 3.63 2.5 1.43 0.2 3.83 2.61 6.66 6.66 4.19 6.01 4.36 6.54 3.31 9.94-1.03 3.39-0.88 3.87 2.55 8.16 2.01 2.51 5.19 6.14 7.06 8.06 4.47 4.58 7.61 9 6.39 9-0.54 0-4.23-3.48-8.2-7.74zm-11.21-14.51c2.67-3.35 2.41-5.79-1.23-11.27-5.81-8.76-9.49-9.3-12.99-1.93-2.11 4.45-1.42 7.72 2.43 11.58 2.2 2.19 3.81 2.87 6.83 2.87 2.18 0 4.41-0.56 4.96-1.25zm-7.98-1.3c-3.33-1.82-5.31-7.93-3.82-11.85 1.25-3.29 2.28-3.4 1.46-0.15-0.79 3.17 1.25 9.3 3.5 10.51 0.97 0.51 2.84 0.7 4.17 0.41 2.33-0.5 2.35-0.47 0.47 1.06-2.32 1.88-2.34 1.88-5.78 0.02zm-0.66-6.55c-1.35-3.85-1.35-3.9-0.24-3.9 0.89 0 2.45 6 1.74 6.71-0.21 0.22-0.89-1.05-1.5-2.81zm-5.37-74.416c4.48-1.793 5.04-2.591 3-4.264-6.59-5.399-41.58-3.606-38.14 1.955 2.74 4.429 26.02 5.958 35.14 2.309zm265.45 95.146c-0.71-4.88-1.09-9.08-0.83-9.33 0.83-0.83 2.76 10.55 2.44 14.41-0.23 2.85-0.63 1.6-1.61-5.08zm-169.85 4.9c0.31-0.81 0.13-1.73-0.39-2.06-1.35-0.83-1.18-1.63 0.95-4.39l1.86-2.43 1.53 2.96c1.44 2.79 1.4 3.08-0.78 5.17-2.65 2.56-3.98 2.87-3.17 0.75zm173.68-0.98c-0.02-2.15 0.27-2.65 1.07-1.85 0.79 0.79 0.8 1.63 0.03 2.95-0.94 1.62-1.07 1.49-1.1-1.1zm-226.03 0.34c-1.31-0.94-1.3-1.02 0.07-0.58 0.88 0.27 2.1-0.35 2.76-1.41 0.72-1.16 0.79-1.9 0.18-1.9-1.3 0-1.31-2.69-0.01-3.5 0.54-0.34 1.51 0.54 2.15 1.94 0.97 2.13 0.87 2.88-0.65 4.56-2.08 2.29-2.45 2.37-4.5 0.89zm19.01-1.36c-1.32-3.47-1.27-4.87 0.19-6.33 1.79-1.79 2.6-1.49 4.19 1.58 1.34 2.59 1.27 2.95-0.97 5.1l-2.4 2.31-1.01-2.66zm2.99-2.47c0-0.52-0.45-1.22-1-1.56s-1 0.08-1 0.94 0.45 1.56 1 1.56 1-0.42 1-0.94zm5.54 2.12c-0.69-3.13 0.73-7.18 2.52-7.18 0.54 0 1.45 1.21 2.01 2.68 0.87 2.28 0.65 3.05-1.42 5.12l-2.44 2.44-0.67-3.06zm9.21 2.08c-2.21-0.51-2.22-2.65-0.03-6.36 2.18-3.69 2.82-3.64 4.2 0.3 0.94 2.71 0.84 3.46-0.65 4.84-0.97 0.9-2.56 1.45-3.52 1.22zm6.92 0.07c-1.2-1.2-0.71-3.47 1.31-6.03l1.98-2.52 1.05 2.75c0.84 2.2 0.71 3.12-0.64 4.61-1.79 1.99-2.64 2.26-3.7 1.19zm-34.25-2.68c-0.87-1.87-0.73-2.78 0.66-4.5 0.96-1.18 1.96-2.15 2.22-2.15 1.24 0 1.59 5.2 0.48 6.99-1.61 2.56-2.04 2.52-3.36-0.34zm-10.22-0.9c-0.95-1.15-0.99-1.76-0.16-2.27 0.8-0.5 0.82-1.02 0.07-1.77-0.6-0.6-0.69-1.53-0.22-2.14 1.41-1.78 2-14.28 0.75-15.53-0.83-0.83-0.81-1.32 0.07-1.86 1.24-0.77 1.37-1.52 1.6-9.43 0.08-2.61 0.39-4.75 0.69-4.75 0.31 0 0.54-5.74 0.52-12.75-0.02-8.299 0.42-13.797 1.26-15.75 1.17-2.708 1.26-2.193 0.92 5.279-0.25 5.533-0.02 8.161 0.69 7.926 0.58-0.195 1.29-1.325 1.58-2.513 0.51-2.081 0.59-2.06 2.1 0.588 1.44 2.534 1.42 2.983-0.26 5.734-1.79 2.916-1.84 2.933-2.44 0.736-1.15-4.294-2.37-2.217-2.34 4 0.03 5.71 0.16 6.08 1.5 4.31 0.81-1.07 1.47-2.42 1.48-3 0-0.58 0.67 0.23 1.5 1.8 1.81 3.47 1.8 3.64-0.04 6.08-1.46 1.92-1.48 1.92-2.9 0-1.18-1.6-1.52-1.68-1.94-0.44-0.87 2.55-1.17 10.84-0.38 10.35 0.41-0.26 0.75-1.34 0.75-2.41 0-2.75 1.23-2.39 3.1 0.89 1.49 2.61 1.48 2.98-0.16 4.99-2.11 2.61-2.94 2.76-2.94 0.51 0-0.91-0.34-1.33-0.75-0.92-0.41 0.4-1.2 5.95-1.75 12.33-0.84 9.73-1.21 11.34-2.3 10.01zm5-10.36c-0.75-1.33-0.61-2.64 0.51-4.8l1.54-2.97 1.47 2.82c1.35 2.58 1.31 2.97-0.51 4.8-1.91 1.9-2.03 1.91-3.01 0.15zm27.98-2.34c-0.06-4.61 1.98-7 4.32-5.05 2.24 1.86 1.73 4.23-1.44 6.73l-2.82 2.23-0.06-3.91zm-18.18 1.45c0-0.82-0.45-1.5-1-1.5-1.69 0-1.11-2.46 1.01-4.28 2.54-2.17 3.24-2.16 4.63 0.07 0.9 1.44 0.66 2.32-1.21 4.5-2.65 3.08-3.43 3.36-3.43 1.21zm27.12 0c0.18-1.1-0.03-2.58-0.48-3.29-0.92-1.48 0.94-4.21 2.87-4.21 1.07 0 3.18 4.95 2.29 5.38-0.17 0.08-1.36 1.04-2.66 2.13-2.35 1.99-2.35 1.99-2.02-0.01zm8.55 0.83c-1.35-1.34-0.62-6.07 1.19-7.71 1.77-1.59 1.96-1.55 3.5 0.8 1.55 2.37 1.51 2.62-0.73 5.04-2.53 2.72-2.93 2.91-3.96 1.87zm-26.66-2.82c-1.17-2.18-1.1-2.75 0.53-4.55l1.87-2.07 1.77 2.31c2.24 2.9 2.25 3.75 0.07 5.41-2.41 1.82-2.72 1.74-4.24-1.1zm2.99-1.51c0-0.55-0.48-1-1.06-1s-0.78 0.45-0.44 1 0.82 1 1.06 1 0.44-0.45 0.44-1zm32.07 2.14c-0.78-1.46-0.48-2.34 1.37-4.09 2.35-2.2 2.38-2.2 3.01-0.2 0.63 1.96-1.19 6.15-2.66 6.15-0.39 0-1.17-0.84-1.72-1.86zm-48.49-11.39c0.39-1.24 1.39-3.29 2.22-4.56 1.15-1.76 1.71-2 2.34-1 1.46 2.3 0.92 5.71-1.07 6.77-3.14 1.68-4.28 1.28-3.49-1.21zm8.85-0.16c-0.64-2.55 0.97-6.59 2.63-6.59 0.54 0 1.44 1.19 2 2.65 0.82 2.17 0.65 2.98-0.99 4.5-2.57 2.39-2.91 2.34-3.64-0.56zm9.22-0.6c-0.42-2.08-0.08-3.63 1.07-4.98 1.65-1.92 1.71-1.9 2.98 1.13 1.67 3.98 1.64 4.86-0.2 4.86-0.82 0-1.5 0.45-1.5 1 0 2.3-1.8 0.76-2.35-2.01zm10.05 2.26c-1.76-3.13-1.5-6.09 0.7-8.15l2.35-2.22 0.61 2.43c0.35 1.39-0.05 3.77-0.95 5.56-1.63 3.28-2.02 3.62-2.71 2.38zm17.72-2.66c-0.8-2.56-0.65-3.79 0.74-6.1 1.59-2.62 1.81-2.71 2.38-0.94 0.34 1.07 0.99 2.87 1.43 4 0.6 1.52 0.24 2.61-1.37 4.15l-2.17 2.1-1.01-3.21zm-10.09-0.13c-1.02-2.19-0.86-2.87 1.23-5.12 2.42-2.61 2.91-2.38 3.6 1.66 0.29 1.68-1.84 6-2.95 5.99-0.39 0-1.24-1.14-1.88-2.53zm17.28-2.88c0.33-0.87 1.04-1.58 1.58-1.58 1.31 0 0.49 2.27-1 2.77-0.73 0.24-0.96-0.21-0.58-1.19zm-48.91-9.33c-0.5-2.57 1.46-6.25 3.33-6.25 1.52 0 1.96 6.16 0.53 7.58-2.12 2.12-3.27 1.73-3.86-1.33zm8.76-0.5c-0.78-2.63-0.63-3.58 0.79-5 2.3-2.302 3.03-2.201 4.33 0.6 0.9 1.94 0.7 2.79-1.2 4.99-1.26 1.46-2.44 2.66-2.63 2.66-0.18 0-0.77-1.46-1.29-3.25zm20.26 2.6c-0.3-0.48-0.84-2.47-1.21-4.42-0.49-2.62-0.25-3.9 0.9-4.86 1.32-1.088 1.68-0.997 2.27 0.57 0.38 1.02 1.26 2.31 1.95 2.86 0.98 0.78 0.75 1.63-1.06 3.86-1.27 1.57-2.56 2.47-2.85 1.99zm18.3-1.54c-1.1-2.31-1.05-2.93 0.39-4.37 2.34-2.34 2.98-1.22 1.86 3.26l-0.96 3.8-1.29-2.69zm-29.35 0.52c-1.78-1.77 0.54-8.343 2.94-8.32 0.49 0 1.4 1.1 2.02 2.44 0.96 2.06 0.8 2.74-1.07 4.49-2.37 2.23-2.88 2.41-3.89 1.39zm3.33-3.89c0-0.24-0.45-0.44-1-0.44s-1 0.48-1 1.06 0.45 0.78 1 0.44 1-0.82 1-1.06zm16.62 1.42c-0.46-2.33-0.18-3.48 1.13-4.47 4.36-3.309 6.63 1.14 2.62 5.15-1.35 1.35-2.61 2.46-2.79 2.46s-0.61-1.41-0.96-3.14zm15.46-9.277c-0.04-1.054 0.19-1.644 0.52-1.312 0.34 0.332 0.37 1.195 0.08 1.917-0.32 0.797-0.55 0.56-0.6-0.605zm-53.28-3.503c-0.27-1.803 0.24-3.809 1.33-5.247l1.75-2.327 0.92 2.479c0.71 1.922 0.46 3.103-1.13 5.247-1.13 1.523-2.14 2.768-2.24 2.768-0.11 0-0.4-1.314-0.63-2.92zm25.5-1.692c-0.99-2.13-0.93-3.026 0.36-4.992 0.86-1.318 1.69-2.396 1.84-2.396s1.01 1.133 1.92 2.517c1.54 2.352 1.53 2.677-0.14 4.968-2.24 3.085-2.51 3.078-3.98-0.097zm9.32 0.158c-1.34-2.055-1.38-2.584-0.22-3.25 0.76-0.438 1.54-1.664 1.74-2.725 0.34-1.836 0.44-1.845 2.11-0.178 2.02 2.021 2.29 5.666 0.55 7.407-1.71 1.712-2.36 1.516-4.18-1.254zm10.33 0.899c-1.08-1.302-0.92-1.91 0.99-3.75l2.27-2.195-0.67 2.25c-0.41 1.348-0.25 2.25 0.39 2.25 0.59 0 1.07-0.675 1.07-1.5s0.45-1.5 1-1.5c1.39 0 1.25 3.347-0.2 4.8-1.63 1.63-3.3 1.508-4.85-0.355zm-37.36-1.933c-0.59-2.369 1.07-6.512 2.62-6.512 0.39 0 1.2 0.904 1.79 2.009 0.84 1.566 0.69 2.551-0.71 4.468-2.27 3.119-2.92 3.125-3.7 0.035zm8.06 0.255c-0.32-1.228-0.15-2.668 0.38-3.2s0.97-1.815 0.97-2.85c0-2.699 2.21-1.589 3.29 1.653 0.71 2.128 0.52 3.183-0.84 4.688-2.27 2.511-3.08 2.449-3.8-0.291zm-20.92-7.517c-0.28-0.962-0.83-2.538-1.22-3.5-0.46-1.116-0.27-1.75 0.52-1.75 0.69 0 1.77-0.709 2.4-1.575 1.01-1.38 1.32-1.264 2.5 0.937 1.16 2.169 1.12 2.733-0.3 4.146-0.89 0.899-1.63 2.053-1.63 2.563 0 1.629-1.75 0.997-2.27-0.821zm47.76-0.269c-0.38-0.613-0.42-1.38-0.1-1.706 0.33-0.325 0.07-1.217-0.56-1.983-0.89-1.073-0.79-1.756 0.43-2.979 1.77-1.77 4.47-1.174 5.38 1.186 0.74 1.935-4.14 7.126-5.15 5.482zm3.01-4.981c-0.34-0.55-0.82-1-1.06-1s-0.44 0.45-0.44 1 0.48 1 1.06 1 0.78-0.45 0.44-1zm-42.9 0.538c-0.45-1.781-0.05-3.092 1.38-4.523 2.52-2.513 2.66-2.506 3.36 0.167 0.39 1.489-0.18 2.926-1.77 4.523l-2.34 2.34-0.63-2.507zm10.02-0.681c-0.98-4.924 2.27-7.8 4.37-3.867 0.82 1.52 0.68 2.583-0.58 4.5-2.16 3.31-3.03 3.166-3.79-0.633zm9.54 0.586c-0.83-1.808-0.86-3.127-0.13-4.5 1.32-2.465 2.17-2.45 3.75 0.068 1.03 1.662 0.97 2.445-0.38 4.5-0.9 1.369-1.73 2.489-1.85 2.489-0.13 0-0.75-1.151-1.39-2.557zm9.84 1.057c0-0.825-0.45-1.5-1-1.5-1.61 0-1.15-1.847 1-4 2.5-2.496 3.21-2.501 4.75-0.033 1.05 1.682 0.86 2.333-1.31 4.5-2.93 2.935-3.44 3.087-3.44 1.033z"/>
  </g>
  <metadata>
    <rdf:RDF>
      <cc:Work>
        <dc:format>image/svg+xml</dc:format>
        <dc:type rdf:resource="http://purl.org/dc/dcmitype/StillImage"/>
        <cc:license rdf:resource="http://creativecommons.org/licenses/publicdomain/"/>
        <dc:publisher>
          <cc:Agent rdf:about="http://openclipart.org/">
            <dc:title>Openclipart</dc:title>
          </cc:Agent>
        </dc:publisher>
        <dc:title>Cheese Board</dc:title>
        <dc:date>2009-09-24T22:48:36</dc:date>
        <dc:description>Cheese Board&#xD;\n&#xD;\nblack and white trace&#xD;\n&#xD;\nFROM: The Complete Book of Cheese &#xD;\nby Robert Carlton Brown&#xD;\nGutenberg EText-No.   14293</dc:description>
        <dc:source>http://openclipart.org/detail/27515/cheese-board-by-tom</dc:source>
        <dc:creator>
          <cc:Agent>
            <dc:title>tom</dc:title>
          </cc:Agent>
        </dc:creator>
        <dc:subject>
          <rdf:Bag>
            <rdf:li>board</rdf:li>
            <rdf:li>cheese</rdf:li>
            <rdf:li>clip art</rdf:li>
            <rdf:li>clipart</rdf:li>
            <rdf:li>dinner</rdf:li>
            <rdf:li>drink</rdf:li>
            <rdf:li>externalsource</rdf:li>
            <rdf:li>food</rdf:li>
            <rdf:li>grater</rdf:li>
            <rdf:li>image</rdf:li>
            <rdf:li>media</rdf:li>
            <rdf:li>public domain</rdf:li>
            <rdf:li>svg</rdf:li>
            <rdf:li>wine</rdf:li>
          </rdf:Bag>
        </dc:subject>
      </cc:Work>
      <cc:License rdf:about="http://creativecommons.org/licenses/publicdomain/">
        <cc:permits rdf:resource="http://creativecommons.org/ns#Reproduction"/>
        <cc:permits rdf:resource="http://creativecommons.org/ns#Distribution"/>
        <cc:permits rdf:resource="http://creativecommons.org/ns#DerivativeWorks"/>
      </cc:License>
    </rdf:RDF>
  </metadata>
</svg>
