<?xml version="1.0" encoding="utf-8"?>
<!-- Uploaded to: SVG Repo, www.svgrepo.com, Generator: SVG Repo Mixer Tools -->
<svg width="800px" height="800px" viewBox="0 0 1024 1024" class="icon"  version="1.1" xmlns="http://www.w3.org/2000/svg"><path d="M810.666667 448c0-46.293333 36.906667-83.754667 82.88-85.077333-2.709333-90.154667-6.72-169.045333-6.72-169.045334-342.954667 28.266667-688.554667 98.368-688.554667 98.368-45.888 9.088-55.082667 18.176-64.256 54.464 0 0-18.368 72.597333 9.173333 226.901334S271.978667 791.466667 317.610667 791.466667c0 0 373.653333 35.178667 569.216 10.282666 0 0 7.722667-146.133333 9.002666-268.437333A85.333333 85.333333 0 0 1 810.666667 448z" fill="#FFE57F" /><path d="M321.6 749.930667l-2.005333-0.192h-2.005334c-21.205333 0-108.352-45.824-132.906666-183.402667-25.173333-141.077333-9.856-209.216-9.770667-209.557333 3.2-12.693333 5.056-15.872 5.12-16.085334 0.981333-0.725333 5.845333-3.498667 26.688-7.594666 3.264-0.661333 317.973333-64.085333 639.978667-93.845334l42.090666-3.370666c-1.152-25.792-1.984-42.005333-1.984-42.005334-342.954667 28.266667-688.554667 98.368-688.554666 98.368-45.888 9.088-55.082667 18.176-64.256 54.464 0 0-18.368 72.597333 9.173333 226.901334S271.978667 791.466667 317.610667 791.466667c0 0 203.946667 19.2 389.333333 19.2 65.536 0 128.789333-2.410667 179.882667-8.917334 0 0 0.874667-16.768 2.112-43.669333-51.2 6.592-136.618667 10.88-181.973334 10.88-181.184 0-383.338667-18.837333-385.365333-19.029333z" fill="#FFB300" /><path d="M130.773333 366.826667c1.557333-13.418667 3.221333-20.117333 3.221334-20.117334 9.173333-36.288 18.346667-45.376 64.256-54.464 0 0 345.6-70.101333 688.554666-98.368 0 0-287.061333-14.677333-349.44-20.778666s-116.885333 0-147.605333 9.557333c-30.741333 9.536-130.944 51.242667-130.944 51.242667-137.706667 53.184-128.064 132.928-128.042667 132.928z" fill="#FFA000" /><path d="M469.333333 469.333333m-85.333333 0a85.333333 85.333333 0 1 0 170.666667 0 85.333333 85.333333 0 1 0-170.666667 0Z" fill="#FFC400" /><path d="M704 341.333333m-42.666667 0a42.666667 42.666667 0 1 0 85.333334 0 42.666667 42.666667 0 1 0-85.333334 0Z" fill="#FFC400" /><path d="M352 629.333333m-53.333333 0a53.333333 53.333333 0 1 0 106.666666 0 53.333333 53.333333 0 1 0-106.666666 0Z" fill="#FFC400" /><path d="M266.666667 458.666667m-32 0a32 32 0 1 0 64 0 32 32 0 1 0-64 0Z" fill="#FFC400" /><path d="M704 597.333333m-64 0a64 64 0 1 0 128 0 64 64 0 1 0-128 0Z" fill="#FFC400" /></svg>