<?xml version="1.0" encoding="iso-8859-1"?>
<!-- Uploaded to: SVG Repo, www.svgrepo.com, Generator: SVG Repo Mixer Tools -->
<svg height="800px" width="800px" version="1.1" id="Layer_1" xmlns="http://www.w3.org/2000/svg" xmlns:xlink="http://www.w3.org/1999/xlink" 
	 viewBox="0 0 512 512" xml:space="preserve">
<path style="fill:#E0BB73;" d="M482.358,121.263c0,1.704,0.796,3.31,2.158,4.334c11.776,8.846,19.4,22.918,19.4,38.782l0,0
	c0,15.015-6.83,28.426-17.546,37.319c-2.531,2.1-4.012,5.203-4.012,8.492c0,3.289,1.481,6.392,4.012,8.492
	c10.716,8.893,17.546,22.303,17.546,37.319l0,0c0,15.015-6.83,28.426-17.546,37.319c-2.531,2.1-4.012,5.203-4.012,8.492
	c0,3.289,1.481,6.392,4.012,8.492c10.716,8.893,17.546,22.303,17.546,37.319l0,0c0,15.863-7.624,29.935-19.4,38.782
	c-1.362,1.023-2.158,2.63-2.158,4.334c0,1.704,0.796,3.31,2.158,4.334c11.776,8.846,19.4,22.918,19.4,38.782l0,0
	c0,11.549-4.039,22.151-10.779,30.477c-4.322,5.339-23.468,24.485-28.807,28.807c-8.327,6.74-18.928,10.779-30.477,10.779l0,0
	c-15.863,0-29.935-7.624-38.782-19.4c-1.023-1.362-2.63-2.158-4.334-2.158c-1.704,0-3.31,0.796-4.334,2.158
	c-8.846,11.776-22.918,19.4-38.782,19.4l0,0c-15.015,0-28.426-6.83-37.319-17.546c-2.1-2.531-5.203-4.012-8.492-4.012
	c-3.289,0-6.392,1.481-8.492,4.012c-8.893,10.716-22.303,17.546-37.319,17.546l0,0l0,0c-15.015,0-28.426-6.83-37.319-17.546
	c-2.1-2.531-5.203-4.012-8.492-4.012s-6.392,1.481-8.492,4.012c-8.893,10.716-22.303,17.546-37.319,17.546l0,0
	c-15.863,0-29.935-7.624-38.782-19.4c-1.023-1.362-2.63-2.158-4.334-2.158c-1.704,0-3.31,0.796-4.334,2.158
	c-8.846,11.776-22.918,19.4-38.782,19.4l0,0c-11.547,0-22.149-4.038-30.475-10.777c-5.34-4.322-26.766-25.403-31.415-32.343
	c-5.161-7.705-8.173-16.971-8.173-26.943l0,0c0-15.863,7.624-29.935,19.4-38.782c1.362-1.023,2.158-2.63,2.158-4.334
	c0-1.704-0.795-3.31-2.158-4.334c-11.776-8.846-19.4-22.918-19.4-38.782l0,0c0-15.015,6.83-28.426,17.546-37.319
	c2.531-2.1,4.012-5.203,4.012-8.492c0-3.289-1.481-6.392-4.012-8.492C14.914,284.426,8.084,271.015,8.084,256l0,0
	c0-15.015,6.83-28.426,17.546-37.319c2.531-2.1,4.012-5.203,4.012-8.492c0-3.289-1.481-6.392-4.012-8.492
	c-10.716-8.893-17.546-22.304-17.546-37.319l0,0c0-15.863,7.624-29.935,19.4-38.782c1.362-1.023,2.158-2.63,2.158-4.334
	s-0.795-3.31-2.158-4.334c-11.776-8.846-19.4-22.918-19.4-38.782l0,0c0-11.549,4.039-22.151,10.779-30.477
	c4.322-5.339,23.468-24.484,28.807-28.807c8.327-6.74,18.928-10.779,30.477-10.779l0,0c15.863,0,29.935,7.624,38.782,19.4
	c1.023,1.362,2.63,2.158,4.334,2.158s3.31-0.795,4.334-2.158c8.846-11.776,22.918-19.4,38.782-19.4l0,0
	c15.015,0,28.426,6.83,37.319,17.546c2.1,2.531,5.203,4.012,8.492,4.012s6.392-1.481,8.492-4.012
	C227.574,14.914,240.985,8.084,256,8.084l0,0l0,0c15.015,0,28.426,6.83,37.319,17.546c2.1,2.531,5.203,4.012,8.492,4.012
	c3.289,0,6.392-1.481,8.492-4.012c8.893-10.716,22.304-17.546,37.319-17.546l0,0c15.863,0,29.935,7.624,38.782,19.4
	c1.023,1.362,2.63,2.158,4.334,2.158c1.704,0,3.31-0.795,4.334-2.158c8.846-11.776,22.918-19.4,38.782-19.4l0,0
	c11.548,0,22.149,4.038,30.475,10.777c5.34,4.322,26.766,25.403,31.415,32.343c5.162,7.705,8.173,16.971,8.173,26.943l0,0
	c0,15.863-7.624,29.935-19.4,38.782C483.153,117.953,482.358,119.559,482.358,121.263z"/>
<path style="fill:#BC8E57;" d="M158.989,256c0,14.882-12.065,26.947-26.947,26.947S105.095,270.882,105.095,256
	s12.065-26.947,26.947-26.947S158.989,241.117,158.989,256z M379.958,169.768c14.882,0,26.947-12.065,26.947-26.947
	s-12.065-26.947-26.947-26.947c-14.883,0-26.947,12.065-26.947,26.947C353.01,157.704,365.075,169.768,379.958,169.768z
	 M132.042,115.874c-14.882,0-26.947,12.065-26.947,26.947c0,14.883,12.065,26.947,26.947,26.947s26.947-12.065,26.947-26.947
	S146.925,115.874,132.042,115.874z M132.042,342.232c-14.882,0-26.947,12.065-26.947,26.947s12.065,26.947,26.947,26.947
	s26.947-12.065,26.947-26.947S146.925,342.232,132.042,342.232z M256,229.053c-14.882,0-26.947,12.065-26.947,26.947
	s12.065,26.947,26.947,26.947s26.947-12.065,26.947-26.947S270.882,229.053,256,229.053z M256,342.232
	c-14.882,0-26.947,12.065-26.947,26.947s12.065,26.947,26.947,26.947s26.947-12.065,26.947-26.947S270.882,342.232,256,342.232z
	 M379.958,342.232c-14.883,0-26.947,12.065-26.947,26.947s12.065,26.947,26.947,26.947c14.882,0,26.947-12.065,26.947-26.947
	S394.84,342.232,379.958,342.232z M379.958,229.053c-14.883,0-26.947,12.065-26.947,26.947s12.065,26.947,26.947,26.947
	c14.882,0,26.947-12.065,26.947-26.947S394.84,229.053,379.958,229.053z M256,115.874c-14.882,0-26.947,12.065-26.947,26.947
	c0,14.883,12.065,26.947,26.947,26.947s26.947-12.065,26.947-26.947S270.882,115.874,256,115.874z"/>
<path style="fill:#8E5644;" d="M250.611,256c0,11.048,6.653,20.54,16.168,24.699c-3.302,1.442-6.945,2.248-10.779,2.248
	c-14.882,0-26.947-12.065-26.947-26.947s12.065-26.947,26.947-26.947c3.834,0,7.477,0.806,10.779,2.248
	C257.263,235.46,250.611,244.952,250.611,256z M390.737,231.301c-3.302-1.442-6.945-2.248-10.779-2.248
	c-14.883,0-26.947,12.065-26.947,26.947s12.065,26.947,26.947,26.947c3.834,0,7.477-0.806,10.779-2.248
	c-9.516-4.159-16.168-13.65-16.168-24.699S381.221,235.46,390.737,231.301z M374.568,142.821c0-11.048,6.653-20.54,16.168-24.699
	c-3.302-1.442-6.945-2.248-10.779-2.248c-14.883,0-26.947,12.065-26.947,26.947c0,14.883,12.065,26.947,26.947,26.947
	c3.834,0,7.477-0.806,10.779-2.248C381.221,163.361,374.568,153.869,374.568,142.821z M142.821,118.122
	c-3.302-1.442-6.945-2.248-10.779-2.248c-14.882,0-26.947,12.065-26.947,26.947c0,14.883,12.065,26.947,26.947,26.947
	c3.834,0,7.477-0.806,10.779-2.248c-9.516-4.159-16.168-13.65-16.168-24.699S133.305,122.281,142.821,118.122z M266.779,118.122
	c-3.302-1.442-6.945-2.248-10.779-2.248c-14.882,0-26.947,12.065-26.947,26.947c0,14.883,12.065,26.947,26.947,26.947
	c3.834,0,7.477-0.806,10.779-2.248c-9.516-4.159-16.168-13.65-16.168-24.699S257.263,122.281,266.779,118.122z M266.779,344.48
	c-3.302-1.442-6.945-2.248-10.779-2.248c-14.882,0-26.947,12.065-26.947,26.947s12.065,26.947,26.947,26.947
	c3.834,0,7.477-0.806,10.779-2.249c-9.516-4.159-16.168-13.65-16.168-24.699C250.611,358.131,257.263,348.639,266.779,344.48z
	 M390.737,344.48c-3.302-1.442-6.945-2.248-10.779-2.248c-14.883,0-26.947,12.065-26.947,26.947s12.065,26.947,26.947,26.947
	c3.834,0,7.477-0.806,10.779-2.249c-9.516-4.159-16.168-13.65-16.168-24.699C374.568,358.131,381.221,348.639,390.737,344.48z
	 M142.821,231.301c-3.302-1.442-6.945-2.248-10.779-2.248c-14.882,0-26.947,12.065-26.947,26.947s12.065,26.947,26.947,26.947
	c3.834,0,7.477-0.806,10.779-2.248c-9.516-4.159-16.168-13.65-16.168-24.699S133.305,235.46,142.821,231.301z M142.821,344.48
	c-3.302-1.442-6.945-2.248-10.779-2.248c-14.882,0-26.947,12.065-26.947,26.947s12.065,26.947,26.947,26.947
	c3.834,0,7.477-0.806,10.779-2.249c-9.516-4.159-16.168-13.65-16.168-24.699C126.653,358.131,133.305,348.639,142.821,344.48z"/>
<path style="fill:#BC8E57;" d="M51.2,495.732c-1.215-0.814-2.394-1.676-3.528-2.595c-5.34-4.322-26.766-25.403-31.415-32.343
	c-5.161-7.704-8.173-16.97-8.173-26.942l0,0c0-15.863,7.624-29.935,19.4-38.782c1.362-1.023,2.158-2.63,2.158-4.334
	c0-1.704-0.795-3.31-2.158-4.334c-11.776-8.846-19.4-22.918-19.4-38.782l0,0c0-15.015,6.83-28.426,17.546-37.319
	c2.531-2.1,4.012-5.203,4.012-8.492c0-3.289-1.481-6.392-4.012-8.492C14.914,284.426,8.084,271.015,8.084,256l0,0
	c0-15.015,6.83-28.426,17.546-37.319c2.531-2.1,4.012-5.203,4.012-8.492c0-3.289-1.481-6.392-4.012-8.492
	c-10.716-8.893-17.546-22.304-17.546-37.319l0,0c0-15.863,7.624-29.935,19.4-38.782c1.362-1.023,2.158-2.63,2.158-4.334
	s-0.795-3.31-2.158-4.334c-11.776-8.846-19.4-22.918-19.4-38.782l0,0c0-11.549,4.039-22.151,10.779-30.477
	c4.322-5.339,23.468-24.484,28.807-28.807c1.134-0.918,2.314-1.782,3.53-2.596V495.732z"/>
<path d="M25.146,52.756c-5.873,7.256-8.978,16.036-8.978,25.391c0,12.818,5.894,24.598,16.171,32.319
	c3.373,2.532,5.387,6.569,5.387,10.797s-2.015,8.265-5.388,10.798c-10.276,7.72-16.169,19.499-16.169,32.317
	c0,12.051,5.33,23.385,14.624,31.098c4.406,3.655,6.934,9.018,6.934,14.712c0,5.695-2.528,11.057-6.934,14.713
	c-9.294,7.712-14.624,19.046-14.624,31.097s5.33,23.385,14.624,31.098c4.406,3.655,6.934,9.018,6.934,14.712
	c0,5.694-2.528,11.057-6.934,14.713c-9.294,7.712-14.624,19.046-14.624,31.097c0,12.818,5.894,24.598,16.171,32.319
	c3.373,2.532,5.387,6.569,5.387,10.797c0,4.229-2.015,8.265-5.388,10.798c-10.276,7.72-16.169,19.499-16.169,32.317
	c0,8.037,2.353,15.798,6.805,22.444c0.546,0.816,2.465,3.398,8.443,9.73c3.064,3.247,2.918,8.362-0.329,11.428
	c-1.562,1.475-3.557,2.206-5.548,2.206c-2.147,0-4.289-0.849-5.88-2.535c-5.079-5.38-8.389-9.249-10.119-11.831
	C3.299,455.977,0,445.105,0,433.853c0-16.809,7.232-32.338,19.959-43.116C7.232,379.957,0,364.429,0,347.621
	c0-16.877,7.46-32.746,20.468-43.54c0.693-0.574,1.09-1.401,1.09-2.27s-0.397-1.696-1.09-2.269C7.46,288.746,0,272.877,0,256
	s7.46-32.746,20.468-43.54c0.693-0.575,1.09-1.401,1.09-2.27c0-0.869-0.397-1.696-1.09-2.269C7.46,197.125,0,181.256,0,164.379
	c0-16.809,7.232-32.338,19.959-43.116C7.232,110.483,0,94.955,0,78.147c0-12.912,4.468-25.543,12.58-35.563
	c4.641-5.734,24.27-25.363,30.003-30.004C52.606,4.468,65.235,0,78.147,0c16.81,0,32.338,7.232,43.116,19.959
	C132.04,7.233,147.569,0,164.379,0c16.877,0,32.746,7.46,43.539,20.468c0.575,0.692,1.402,1.09,2.271,1.09
	c0.869,0,1.697-0.398,2.271-1.091C223.254,7.46,239.123,0,256,0s32.746,7.46,43.539,20.468c0.574,0.692,1.402,1.09,2.271,1.09
	s1.697-0.398,2.271-1.091C314.875,7.46,330.744,0,347.621,0c16.81,0,32.338,7.232,43.116,19.959C401.514,7.233,417.043,0,433.853,0
	c12.911,0,25.541,4.467,35.561,12.577c3.471,2.809,4.007,7.9,1.198,11.371c-2.808,3.471-7.898,4.009-11.37,1.198
	c-7.255-5.872-16.035-8.977-25.389-8.977c-12.819,0-24.598,5.894-32.317,16.172c-2.535,3.373-6.572,5.386-10.798,5.386
	c-4.227,0-8.264-2.014-10.797-5.386c-7.72-10.278-19.5-16.172-32.319-16.172c-12.051,0-23.385,5.33-31.097,14.624
	c-3.657,4.408-9.02,6.934-14.713,6.934s-11.056-2.527-14.712-6.933c-7.713-9.295-19.047-14.625-31.098-14.625
	s-23.385,5.33-31.097,14.624c-3.657,4.408-9.02,6.934-14.713,6.934s-11.056-2.527-14.712-6.933
	c-7.713-9.295-19.047-14.625-31.098-14.625c-12.819,0-24.598,5.894-32.317,16.172c-2.535,3.373-6.572,5.386-10.798,5.386
	c-4.228,0-8.264-2.014-10.797-5.386c-7.72-10.278-19.5-16.172-32.319-16.172c-9.354,0-18.134,3.104-25.391,8.979
	C47.909,29.072,29.072,47.908,25.146,52.756z M414.989,369.179c0,19.317-15.716,35.032-35.032,35.032s-35.032-15.715-35.032-35.032
	c0-19.317,15.716-35.032,35.032-35.032S414.989,349.862,414.989,369.179z M398.821,369.179c0-10.401-8.463-18.863-18.863-18.863
	c-10.401,0-18.863,8.463-18.863,18.863c0,10.401,8.463,18.863,18.863,18.863C390.358,388.042,398.821,379.58,398.821,369.179z
	 M512,164.379c0-16.808-7.232-32.336-19.959-43.116C504.768,110.485,512,94.956,512,78.147c0-11.252-3.299-22.125-9.54-31.443
	c-1.731-2.584-5.042-6.454-10.121-11.833c-3.064-3.247-8.181-3.391-11.428-0.328c-3.247,3.067-3.392,8.182-0.327,11.429
	c5.977,6.328,7.897,8.914,8.443,9.73c4.452,6.647,6.805,14.408,6.805,22.445c0,12.818-5.894,24.598-16.169,32.317
	c-3.374,2.533-5.388,6.57-5.388,10.798s2.015,8.265,5.387,10.797c10.277,7.721,16.171,19.5,16.171,32.319
	c0,12.051-5.33,23.385-14.624,31.097c-4.406,3.656-6.934,9.019-6.934,14.713c0,5.695,2.528,11.057,6.934,14.712
	c9.294,7.713,14.624,19.047,14.624,31.098s-5.33,23.385-14.624,31.097c-4.406,3.656-6.934,9.019-6.934,14.713
	c0,5.694,2.528,11.057,6.934,14.712c9.294,7.713,14.624,19.048,14.624,31.098c0,12.818-5.894,24.598-16.169,32.317
	c-3.374,2.533-5.388,6.57-5.388,10.798c0,4.229,2.015,8.265,5.387,10.797c10.277,7.721,16.171,19.5,16.171,32.319
	c0,9.355-3.104,18.135-8.978,25.391c-3.926,4.848-22.763,23.686-27.61,27.609c-7.256,5.875-16.037,8.979-25.391,8.979
	c-12.819,0-24.598-5.894-32.319-16.173c-2.534-3.372-6.571-5.385-10.797-5.385c-4.227,0-8.264,2.014-10.797,5.386
	c-7.72,10.278-19.5,16.172-32.319,16.172c-12.051,0-23.385-5.33-31.098-14.625c-3.656-4.406-9.019-6.933-14.712-6.933
	s-11.056,2.527-14.713,6.934c-7.712,9.294-19.046,14.624-31.097,14.624s-23.385-5.33-31.098-14.625
	c-3.656-4.406-9.019-6.933-14.712-6.933s-11.056,2.527-14.713,6.934c-7.712,9.294-19.046,14.624-31.097,14.624
	c-12.819,0-24.598-5.894-32.319-16.173c-2.534-3.372-6.571-5.385-10.797-5.385c-4.228,0-8.264,2.014-10.797,5.386
	c-7.72,10.278-19.5,16.172-32.319,16.172c-9.354,0-18.133-3.104-25.389-8.977c-3.472-2.808-8.561-2.273-11.37,1.198
	c-2.809,3.471-2.272,8.561,1.198,11.371C52.607,507.533,65.235,512,78.147,512c16.81,0,32.338-7.232,43.116-19.959
	C132.041,504.768,147.569,512,164.379,512c16.877,0,32.746-7.46,43.539-20.467c0.576-0.693,1.403-1.091,2.271-1.091
	c0.868,0,1.697,0.398,2.271,1.09C223.254,504.54,239.123,512,256,512s32.746-7.46,43.539-20.467
	c0.576-0.693,1.403-1.091,2.271-1.091s1.697,0.398,2.271,1.09C314.875,504.54,330.744,512,347.621,512
	c16.81,0,32.338-7.232,43.116-19.959C401.515,504.768,417.043,512,433.853,512c12.912,0,25.542-4.468,35.564-12.58
	c5.733-4.641,25.362-24.27,30.003-30.004c8.112-10.02,12.58-22.651,12.58-35.563c0-16.808-7.232-32.336-19.959-43.116
	C504.768,379.959,512,364.43,512,347.621c0-16.877-7.46-32.746-20.468-43.542c-0.693-0.573-1.09-1.401-1.09-2.269
	s0.397-1.696,1.09-2.27C504.54,288.746,512,272.877,512,256s-7.46-32.746-20.468-43.542c-0.693-0.573-1.09-1.401-1.09-2.269
	c0-0.868,0.397-1.696,1.09-2.27C504.54,197.125,512,181.256,512,164.379z M167.074,142.821c0,19.317-15.716,35.032-35.032,35.032
	s-35.032-15.715-35.032-35.032s15.716-35.032,35.032-35.032S167.074,123.504,167.074,142.821z M150.905,142.821
	c0-10.401-8.463-18.863-18.863-18.863s-18.863,8.463-18.863,18.863s8.463,18.863,18.863,18.863S150.905,153.222,150.905,142.821z
	 M414.989,256c0,19.317-15.716,35.032-35.032,35.032S344.926,275.317,344.926,256s15.716-35.032,35.032-35.032
	S414.989,236.683,414.989,256z M398.821,256c0-10.401-8.463-18.863-18.863-18.863c-10.401,0-18.863,8.463-18.863,18.863
	c0,10.401,8.463,18.863,18.863,18.863C390.358,274.863,398.821,266.401,398.821,256z M167.074,256
	c0,19.317-15.716,35.032-35.032,35.032S97.011,275.317,97.011,256s15.716-35.032,35.032-35.032S167.074,236.683,167.074,256z
	 M150.905,256c0-10.401-8.463-18.863-18.863-18.863s-18.863,8.463-18.863,18.863c0,10.401,8.463,18.863,18.863,18.863
	S150.905,266.401,150.905,256z M414.989,142.821c0,19.317-15.716,35.032-35.032,35.032s-35.032-15.715-35.032-35.032
	s15.716-35.032,35.032-35.032S414.989,123.504,414.989,142.821z M398.821,142.821c0-10.401-8.463-18.863-18.863-18.863
	c-10.401,0-18.863,8.463-18.863,18.863s8.463,18.863,18.863,18.863C390.358,161.684,398.821,153.222,398.821,142.821z
	 M291.032,369.179c0,19.317-15.716,35.032-35.032,35.032s-35.032-15.715-35.032-35.032c0-19.317,15.716-35.032,35.032-35.032
	S291.032,349.862,291.032,369.179z M274.863,369.179c0-10.401-8.463-18.863-18.863-18.863c-10.401,0-18.863,8.463-18.863,18.863
	c0,10.401,8.463,18.863,18.863,18.863C266.401,388.042,274.863,379.58,274.863,369.179z M291.032,142.821
	c0,19.317-15.716,35.032-35.032,35.032s-35.032-15.715-35.032-35.032s15.716-35.032,35.032-35.032S291.032,123.504,291.032,142.821z
	 M274.863,142.821c0-10.401-8.463-18.863-18.863-18.863c-10.401,0-18.863,8.463-18.863,18.863s8.463,18.863,18.863,18.863
	C266.401,161.684,274.863,153.222,274.863,142.821z M167.074,369.179c0,19.317-15.716,35.032-35.032,35.032
	s-35.032-15.715-35.032-35.032c0-19.317,15.716-35.032,35.032-35.032S167.074,349.862,167.074,369.179z M150.905,369.179
	c0-10.401-8.463-18.863-18.863-18.863s-18.863,8.463-18.863,18.863c0,10.401,8.463,18.863,18.863,18.863
	S150.905,379.58,150.905,369.179z M291.032,256c0,19.317-15.716,35.032-35.032,35.032S220.968,275.317,220.968,256
	s15.716-35.032,35.032-35.032S291.032,236.683,291.032,256z M274.863,256c0-10.401-8.463-18.863-18.863-18.863
	c-10.401,0-18.863,8.463-18.863,18.863c0,10.401,8.463,18.863,18.863,18.863C266.401,274.863,274.863,266.401,274.863,256z"/>
</svg>