<?xml version="1.0" encoding="iso-8859-1"?>
<!-- Uploaded to: SVG Repo, www.svgrepo.com, Generator: SVG Repo Mixer Tools -->
<svg height="800px" width="800px" version="1.1" id="Layer_1" xmlns="http://www.w3.org/2000/svg" xmlns:xlink="http://www.w3.org/1999/xlink" 
	 viewBox="0 0 512 512" xml:space="preserve">
<path style="fill:#C8DB86;" d="M360.279,368.47c0,40.935-15.94,79.42-44.886,108.364c-3.215,3.216-3.215,8.428,0,11.643
	c1.607,1.607,3.715,2.411,5.821,2.411s4.214-0.803,5.821-2.411c32.055-32.055,49.708-74.675,49.708-120.007v-21.953h-16.465v21.953
	H360.279z"/>
<path style="fill:#BCC987;" d="M461.499,476.834c-28.946-28.944-44.886-67.429-44.886-108.364v-21.953h-16.465v21.953
	c0,45.334,17.654,87.952,49.709,120.007c1.607,1.607,3.715,2.41,5.821,2.41c2.106,0,4.214-0.803,5.821-2.41
	C464.714,485.261,464.714,480.049,461.499,476.834z"/>
<path style="fill:#C8DB86;" d="M380.213,503.767c0,4.548,3.686,8.233,8.233,8.233c4.547,0,8.233-3.685,8.233-8.233V346.516h-16.465
	V503.767z"/>
<path style="fill:#7D9062;" d="M168.183,0l25.367,184.541l42.974-91.721c2.097-6.718,3.216-13.853,3.216-21.262
	C239.74,32.041,207.699,0,168.183,0z"/>
<g>
	<path style="fill:#9CAC74;" d="M226.48,107.704l-58.297,86.398L99.831,92.819c-2.086-6.718-3.205-13.853-3.205-21.262
		C96.626,32.041,128.656,0,168.183,0c28.682,0,51.942,32.041,51.942,71.557c0,7.409-0.812,14.544-2.338,21.262
		C221.025,97.363,223.945,102.347,226.48,107.704z"/>
	<path style="fill:#9CAC74;" d="M236.524,92.819l-11.646,11.646l-0.077,146.737l38.111-76.661c0.724-4.753,1.098-9.616,1.098-14.577
		C264.01,133.806,253.516,110.107,236.524,92.819z"/>
</g>
<path style="fill:#BCC987;" d="M246.754,196.319L168.293,302.09l-0.11-140.919l56.695-56.706
	c8.101,15.664,12.865,34.807,12.865,55.498c0,4.961-0.274,9.824-0.801,14.577C240.75,181.258,244.043,188.558,246.754,196.319z"/>
<path style="fill:#C8DB86;" d="M168.186,161.169v140.809l-94.729-127.44c-0.724-4.753-1.098-9.616-1.098-14.577
	c0-26.158,10.483-49.856,27.475-67.145L168.186,161.169z"/>
<path style="fill:#E86F22;" d="M447.617,325.01l-4.205-41.574l-11.957-8.236l10.292-8.231l-8.41-83.156l-11.792-8.239l10.126-8.235
	l-8.41-83.152l-11.674-8.239l10.007-8.236l-3.373-33.349l-2.915-16.464C410.919,7.388,400.544,0,388.442,0l8.88,368.466h11.054
	c21.789,0,39.439-17.651,39.439-39.439C447.815,327.677,447.749,326.338,447.617,325.01z"/>
<path style="fill:#FD830C;" d="M414.797,325.01c0.066,1.328,0.088,2.667,0.088,4.017c0,21.789-7.859,39.439-17.563,39.439h-28.814
	c-21.778,0-39.439-17.651-39.439-39.439c0-1.35,0.066-2.689,0.209-4.017l30.219-298.874C360.989,11.46,373.382,0,388.442,0
	c6.718,0,12.228,11.46,12.898,26.136L414.797,325.01z"/>
<g>
	<path style="fill:#FEC45E;" d="M441.747,266.967h-13.036c-4.547,0-8.233,3.685-8.233,8.233c0,4.548,3.686,8.233,8.233,8.233h14.701
		L441.747,266.967z"/>
	<path style="fill:#FEC45E;" d="M395.781,283.432h-28.539c-4.547,0-8.233-3.685-8.233-8.233c0-4.548,3.686-8.233,8.233-8.233h28.539
		c4.547,0,8.233,3.685,8.233,8.233C404.013,279.747,400.327,283.432,395.781,283.432z"/>
	<path style="fill:#FEC45E;" d="M394.536,117.527h-44.278l-1.665,16.465h45.943c4.547,0,8.233-3.685,8.233-8.233
		C402.769,121.211,399.083,117.527,394.536,117.527z"/>
	<path style="fill:#FEC45E;" d="M389.195,217.153h-49.013l-1.665,16.465h50.678c4.547,0,8.233-3.685,8.233-8.233
		S393.741,217.153,389.195,217.153z"/>
</g>
<g>
	<polygon style="fill:#FFAD61;" points="431.668,167.34 433.337,183.805 408.441,183.805 400.725,175.573 407.695,167.34 	"/>
	<polygon style="fill:#FFAD61;" points="421.592,67.715 423.26,84.18 403.952,84.18 394.523,75.948 403.217,67.715 	"/>
	<path style="fill:#FFAD61;" d="M414.687,316.777c4.544,0,8.233,3.688,8.233,8.233c0,4.522-3.633,8.178-8.134,8.233l-10.966-8.233
		l10.604-8.233H414.687z"/>
	<path style="fill:#FFAD61;" d="M417.387,26.136l0.834,8.233h-16.509l-8.737-8.233l7.431-8.233h14.895
		C416.378,20.472,417.102,23.238,417.387,26.136z"/>
</g>
<g>
	<path style="fill:#FEC45E;" d="M414.797,325.01c0.066,1.328,0.088,2.667,0.088,4.017c0,1.427-0.033,2.832-0.099,4.215
		c-0.033,0-0.066,0-0.099,0h-52.48c-4.555,0-8.233-3.677-8.233-8.233c0-4.544,3.677-8.233,8.233-8.233h52.216L414.797,325.01z"/>
	<path style="fill:#FEC45E;" d="M407.695,167.34l0.746,16.465h-19.242c-4.555,0-8.233-3.688-8.233-8.233s3.677-8.233,8.233-8.233
		H407.695z"/>
	<path style="fill:#FEC45E;" d="M403.217,67.715l0.735,16.465h-16.564c-4.544,0-8.233-3.688-8.233-8.233
		c0-4.544,3.688-8.233,8.233-8.233C387.388,67.715,403.217,67.715,403.217,67.715z"/>
	<path style="fill:#FEC45E;" d="M401.34,26.136l0.373,8.233h-9.286c-4.544,0-8.233-3.688-8.233-8.233
		c0-4.555,3.688-8.233,8.233-8.233h7.98C400.889,20.483,401.208,23.249,401.34,26.136z"/>
</g>
<path style="fill:#D4ED85;" d="M168.186,269.048v99.427c-66.332,0-120.096-53.775-120.096-120.107
	c0-27.837,9.473-53.457,25.367-73.829L168.186,269.048z"/>
<path style="fill:#BCC987;" d="M262.912,174.541l-17.673,17.673l-77.057,176.264c66.332,0,120.096-53.775,120.096-120.107
	C288.279,220.533,278.806,194.914,262.912,174.541z"/>
<path style="fill:#C8DB86;" d="M245.24,192.213c6.454,16.761,10.11,35.872,10.11,56.157c0,66.332-39.022,120.107-87.166,120.107
	V269.05l0.11,0.11L245.24,192.213z"/>
<path style="fill:#7D9062;" d="M168.184,507.673c-4.547,0-8.233-3.685-8.233-8.233V71.559c0-4.548,3.686-8.233,8.233-8.233
	s8.233,3.685,8.233,8.233V499.44C176.417,503.988,172.731,507.673,168.184,507.673z"/>
</svg>